<svg width="1363" height="167" viewBox="0 0 1363 167" fill="none" xmlns="http://www.w3.org/2000/svg">
<rect width="1363" height="167" rx="15" fill="#F0F0F0"/>
<path d="M0 15C0 6.71573 6.71573 0 15 0H37V167H15C6.71573 167 0 160.284 0 152V15Z" fill="#344E41"/>
<path d="M103.414 52.3398H106.918C106.848 53.4883 106.531 54.5078 105.969 55.3984C105.414 56.2891 104.637 56.9844 103.637 57.4844C102.645 57.9844 101.449 58.2344 100.051 58.2344C98.957 58.2344 97.9766 58.0469 97.1094 57.6719C96.2422 57.2891 95.5 56.7422 94.8828 56.0312C94.2734 55.3203 93.8086 54.4609 93.4883 53.4531C93.168 52.4453 93.0078 51.3164 93.0078 50.0664V48.8828C93.0078 47.6328 93.1719 46.5039 93.5 45.4961C93.8359 44.4805 94.3125 43.6172 94.9297 42.9062C95.5547 42.1953 96.3008 41.6484 97.168 41.2656C98.0352 40.8828 99.0039 40.6914 100.074 40.6914C101.496 40.6914 102.695 40.9492 103.672 41.4648C104.656 41.9805 105.418 42.6914 105.957 43.5977C106.504 44.5039 106.832 45.5352 106.941 46.6914H103.426C103.387 46.0039 103.25 45.4219 103.016 44.9453C102.781 44.4609 102.426 44.0977 101.949 43.8555C101.48 43.6055 100.855 43.4805 100.074 43.4805C99.4883 43.4805 98.9766 43.5898 98.5391 43.8086C98.1016 44.0273 97.7344 44.3594 97.4375 44.8047C97.1406 45.25 96.918 45.8125 96.7695 46.4922C96.6289 47.1641 96.5586 47.9531 96.5586 48.8594V50.0664C96.5586 50.9492 96.625 51.7266 96.7578 52.3984C96.8906 53.0625 97.0938 53.625 97.3672 54.0859C97.6484 54.5391 98.0078 54.8828 98.4453 55.1172C98.8906 55.3438 99.4258 55.457 100.051 55.457C100.785 55.457 101.391 55.3398 101.867 55.1055C102.344 54.8711 102.707 54.5234 102.957 54.0625C103.215 53.6016 103.367 53.0273 103.414 52.3398ZM108.477 51.7891V51.543C108.477 50.6133 108.609 49.7578 108.875 48.9766C109.141 48.1875 109.527 47.5039 110.035 46.9258C110.543 46.3477 111.168 45.8984 111.91 45.5781C112.652 45.25 113.504 45.0859 114.465 45.0859C115.426 45.0859 116.281 45.25 117.031 45.5781C117.781 45.8984 118.41 46.3477 118.918 46.9258C119.434 47.5039 119.824 48.1875 120.09 48.9766C120.355 49.7578 120.488 50.6133 120.488 51.543V51.7891C120.488 52.7109 120.355 53.5664 120.09 54.3555C119.824 55.1367 119.434 55.8203 118.918 56.4062C118.41 56.9844 117.785 57.4336 117.043 57.7539C116.301 58.0742 115.449 58.2344 114.488 58.2344C113.527 58.2344 112.672 58.0742 111.922 57.7539C111.18 57.4336 110.551 56.9844 110.035 56.4062C109.527 55.8203 109.141 55.1367 108.875 54.3555C108.609 53.5664 108.477 52.7109 108.477 51.7891ZM111.852 51.543V51.7891C111.852 52.3203 111.898 52.8164 111.992 53.2773C112.086 53.7383 112.234 54.1445 112.438 54.4961C112.648 54.8398 112.922 55.1094 113.258 55.3047C113.594 55.5 114.004 55.5977 114.488 55.5977C114.957 55.5977 115.359 55.5 115.695 55.3047C116.031 55.1094 116.301 54.8398 116.504 54.4961C116.707 54.1445 116.855 53.7383 116.949 53.2773C117.051 52.8164 117.102 52.3203 117.102 51.7891V51.543C117.102 51.0273 117.051 50.543 116.949 50.0898C116.855 49.6289 116.703 49.2227 116.492 48.8711C116.289 48.5117 116.02 48.2305 115.684 48.0273C115.348 47.8242 114.941 47.7227 114.465 47.7227C113.988 47.7227 113.582 47.8242 113.246 48.0273C112.918 48.2305 112.648 48.5117 112.438 48.8711C112.234 49.2227 112.086 49.6289 111.992 50.0898C111.898 50.543 111.852 51.0273 111.852 51.543ZM126.184 54.7188L128.82 45.3203H130.965L130.273 49.0117L127.637 58H125.844L126.184 54.7188ZM124.848 45.3203L126.734 54.707L126.91 58H124.801L121.59 45.3203H124.848ZM133.379 54.5547L135.219 45.3203H138.488L135.277 58H133.18L133.379 54.5547ZM131.258 45.3203L133.883 54.6484L134.246 58H132.441L129.805 49.0234L129.137 45.3203H131.258ZM147.043 51.918H142.695V49.1758H147.043C147.715 49.1758 148.262 49.0664 148.684 48.8477C149.105 48.6211 149.414 48.3086 149.609 47.9102C149.805 47.5117 149.902 47.0625 149.902 46.5625C149.902 46.0547 149.805 45.582 149.609 45.1445C149.414 44.707 149.105 44.3555 148.684 44.0898C148.262 43.8242 147.715 43.6914 147.043 43.6914H143.914V58H140.398V40.9375H147.043C148.379 40.9375 149.523 41.1797 150.477 41.6641C151.438 42.1406 152.172 42.8008 152.68 43.6445C153.188 44.4883 153.441 45.4531 153.441 46.5391C153.441 47.6406 153.188 48.5938 152.68 49.3984C152.172 50.2031 151.438 50.8242 150.477 51.2617C149.523 51.6992 148.379 51.918 147.043 51.918ZM162.359 55.1406V49.4922C162.359 49.0859 162.293 48.7383 162.16 48.4492C162.027 48.1523 161.82 47.9219 161.539 47.7578C161.266 47.5938 160.91 47.5117 160.473 47.5117C160.098 47.5117 159.773 47.5781 159.5 47.7109C159.227 47.8359 159.016 48.0195 158.867 48.2617C158.719 48.4961 158.645 48.7734 158.645 49.0938H155.27C155.27 48.5547 155.395 48.043 155.645 47.5586C155.895 47.0742 156.258 46.6484 156.734 46.2812C157.211 45.9062 157.777 45.6133 158.434 45.4023C159.098 45.1914 159.84 45.0859 160.66 45.0859C161.645 45.0859 162.52 45.25 163.285 45.5781C164.051 45.9062 164.652 46.3984 165.09 47.0547C165.535 47.7109 165.758 48.5312 165.758 49.5156V54.9414C165.758 55.6367 165.801 56.207 165.887 56.6523C165.973 57.0898 166.098 57.4727 166.262 57.8008V58H162.852C162.688 57.6562 162.562 57.2266 162.477 56.7109C162.398 56.1875 162.359 55.6641 162.359 55.1406ZM162.805 50.2773L162.828 52.1875H160.941C160.496 52.1875 160.109 52.2383 159.781 52.3398C159.453 52.4414 159.184 52.5859 158.973 52.7734C158.762 52.9531 158.605 53.1641 158.504 53.4062C158.41 53.6484 158.363 53.9141 158.363 54.2031C158.363 54.4922 158.43 54.7539 158.562 54.9883C158.695 55.2148 158.887 55.3945 159.137 55.5273C159.387 55.6523 159.68 55.7148 160.016 55.7148C160.523 55.7148 160.965 55.6133 161.34 55.4102C161.715 55.207 162.004 54.957 162.207 54.6602C162.418 54.3633 162.527 54.082 162.535 53.8164L163.426 55.2461C163.301 55.5664 163.129 55.8984 162.91 56.2422C162.699 56.5859 162.43 56.9102 162.102 57.2148C161.773 57.5117 161.379 57.7578 160.918 57.9531C160.457 58.1406 159.91 58.2344 159.277 58.2344C158.473 58.2344 157.742 58.0742 157.086 57.7539C156.438 57.4258 155.922 56.9766 155.539 56.4062C155.164 55.8281 154.977 55.1719 154.977 54.4375C154.977 53.7734 155.102 53.1836 155.352 52.668C155.602 52.1523 155.969 51.7188 156.453 51.3672C156.945 51.0078 157.559 50.7383 158.293 50.5586C159.027 50.3711 159.879 50.2773 160.848 50.2773H162.805ZM171.664 48.0273V58H168.289V45.3203H171.453L171.664 48.0273ZM171.172 51.2148H170.258C170.258 50.2773 170.379 49.4336 170.621 48.6836C170.863 47.9258 171.203 47.2812 171.641 46.75C172.078 46.2109 172.598 45.8008 173.199 45.5195C173.809 45.2305 174.488 45.0859 175.238 45.0859C175.832 45.0859 176.375 45.1719 176.867 45.3438C177.359 45.5156 177.781 45.7891 178.133 46.1641C178.492 46.5391 178.766 47.0352 178.953 47.6523C179.148 48.2695 179.246 49.0234 179.246 49.9141V58H175.848V49.9023C175.848 49.3398 175.77 48.9023 175.613 48.5898C175.457 48.2773 175.227 48.0586 174.922 47.9336C174.625 47.8008 174.258 47.7344 173.82 47.7344C173.367 47.7344 172.973 47.8242 172.637 48.0039C172.309 48.1836 172.035 48.4336 171.816 48.7539C171.605 49.0664 171.445 49.4336 171.336 49.8555C171.227 50.2773 171.172 50.7305 171.172 51.2148ZM185.375 45.3203V58H181.988V45.3203H185.375ZM181.777 42.0156C181.777 41.5234 181.949 41.1172 182.293 40.7969C182.637 40.4766 183.098 40.3164 183.676 40.3164C184.246 40.3164 184.703 40.4766 185.047 40.7969C185.398 41.1172 185.574 41.5234 185.574 42.0156C185.574 42.5078 185.398 42.9141 185.047 43.2344C184.703 43.5547 184.246 43.7148 183.676 43.7148C183.098 43.7148 182.637 43.5547 182.293 43.2344C181.949 42.9141 181.777 42.5078 181.777 42.0156ZM187.625 51.7891V51.543C187.625 50.6133 187.758 49.7578 188.023 48.9766C188.289 48.1875 188.676 47.5039 189.184 46.9258C189.691 46.3477 190.316 45.8984 191.059 45.5781C191.801 45.25 192.652 45.0859 193.613 45.0859C194.574 45.0859 195.43 45.25 196.18 45.5781C196.93 45.8984 197.559 46.3477 198.066 46.9258C198.582 47.5039 198.973 48.1875 199.238 48.9766C199.504 49.7578 199.637 50.6133 199.637 51.543V51.7891C199.637 52.7109 199.504 53.5664 199.238 54.3555C198.973 55.1367 198.582 55.8203 198.066 56.4062C197.559 56.9844 196.934 57.4336 196.191 57.7539C195.449 58.0742 194.598 58.2344 193.637 58.2344C192.676 58.2344 191.82 58.0742 191.07 57.7539C190.328 57.4336 189.699 56.9844 189.184 56.4062C188.676 55.8203 188.289 55.1367 188.023 54.3555C187.758 53.5664 187.625 52.7109 187.625 51.7891ZM191 51.543V51.7891C191 52.3203 191.047 52.8164 191.141 53.2773C191.234 53.7383 191.383 54.1445 191.586 54.4961C191.797 54.8398 192.07 55.1094 192.406 55.3047C192.742 55.5 193.152 55.5977 193.637 55.5977C194.105 55.5977 194.508 55.5 194.844 55.3047C195.18 55.1094 195.449 54.8398 195.652 54.4961C195.855 54.1445 196.004 53.7383 196.098 53.2773C196.199 52.8164 196.25 52.3203 196.25 51.7891V51.543C196.25 51.0273 196.199 50.543 196.098 50.0898C196.004 49.6289 195.852 49.2227 195.641 48.8711C195.438 48.5117 195.168 48.2305 194.832 48.0273C194.496 47.8242 194.09 47.7227 193.613 47.7227C193.137 47.7227 192.73 47.8242 192.395 48.0273C192.066 48.2305 191.797 48.5117 191.586 48.8711C191.383 49.2227 191.234 49.6289 191.141 50.0898C191.047 50.543 191 51.0273 191 51.543ZM205.016 48.0273V58H201.641V45.3203H204.805L205.016 48.0273ZM204.523 51.2148H203.609C203.609 50.2773 203.73 49.4336 203.973 48.6836C204.215 47.9258 204.555 47.2812 204.992 46.75C205.43 46.2109 205.949 45.8008 206.551 45.5195C207.16 45.2305 207.84 45.0859 208.59 45.0859C209.184 45.0859 209.727 45.1719 210.219 45.3438C210.711 45.5156 211.133 45.7891 211.484 46.1641C211.844 46.5391 212.117 47.0352 212.305 47.6523C212.5 48.2695 212.598 49.0234 212.598 49.9141V58H209.199V49.9023C209.199 49.3398 209.121 48.9023 208.965 48.5898C208.809 48.2773 208.578 48.0586 208.273 47.9336C207.977 47.8008 207.609 47.7344 207.172 47.7344C206.719 47.7344 206.324 47.8242 205.988 48.0039C205.66 48.1836 205.387 48.4336 205.168 48.7539C204.957 49.0664 204.797 49.4336 204.688 49.8555C204.578 50.2773 204.523 50.7305 204.523 51.2148Z" fill="#888888"/>
<path d="M102.635 86.0078V118H94.9443V86.0078H102.635ZM115.181 99.2573V118H107.776V94.2256H114.72L115.181 99.2573ZM114.28 105.3L112.588 105.344C112.588 103.674 112.786 102.136 113.182 100.729C113.577 99.3232 114.163 98.1001 114.939 97.0601C115.716 96.02 116.668 95.2144 117.796 94.6431C118.938 94.0718 120.257 93.7861 121.751 93.7861C122.791 93.7861 123.736 93.9473 124.585 94.2695C125.435 94.5771 126.167 95.0679 126.783 95.7417C127.398 96.4009 127.867 97.2651 128.189 98.3345C128.526 99.3892 128.694 100.656 128.694 102.136V118H121.29V103.081C121.29 102.07 121.172 101.308 120.938 100.795C120.718 100.283 120.396 99.9385 119.971 99.7627C119.546 99.5869 119.026 99.499 118.411 99.499C117.767 99.499 117.188 99.6455 116.675 99.9385C116.163 100.231 115.723 100.642 115.357 101.169C115.005 101.682 114.734 102.29 114.544 102.993C114.368 103.696 114.28 104.465 114.28 105.3ZM127.859 105.3L125.794 105.344C125.794 103.674 125.977 102.136 126.343 100.729C126.724 99.3232 127.288 98.1001 128.035 97.0601C128.797 96.02 129.742 95.2144 130.87 94.6431C131.998 94.0718 133.309 93.7861 134.803 93.7861C135.887 93.7861 136.883 93.9473 137.791 94.2695C138.699 94.5918 139.483 95.1118 140.142 95.8296C140.801 96.5474 141.314 97.4995 141.68 98.686C142.046 99.8579 142.229 101.308 142.229 103.037V118H134.803V103.037C134.803 102.055 134.686 101.315 134.451 100.817C134.231 100.305 133.909 99.9604 133.484 99.7847C133.06 99.5942 132.554 99.499 131.968 99.499C131.265 99.499 130.657 99.6455 130.145 99.9385C129.632 100.231 129.2 100.642 128.848 101.169C128.511 101.682 128.262 102.29 128.101 102.993C127.94 103.696 127.859 104.465 127.859 105.3ZM153.941 98.7959V127.141H146.536V94.2256H153.436L153.941 98.7959ZM168.531 105.827V106.289C168.531 108.017 168.333 109.621 167.938 111.101C167.542 112.58 166.956 113.869 166.18 114.968C165.403 116.066 164.437 116.923 163.279 117.539C162.137 118.139 160.811 118.439 159.302 118.439C157.881 118.439 156.658 118.125 155.633 117.495C154.607 116.865 153.75 115.993 153.062 114.88C152.374 113.767 151.817 112.492 151.392 111.057C150.967 109.621 150.63 108.105 150.381 106.508V105.915C150.63 104.201 150.967 102.612 151.392 101.147C151.817 99.6675 152.374 98.3784 153.062 97.2798C153.75 96.1812 154.6 95.3242 155.611 94.709C156.636 94.0938 157.859 93.7861 159.28 93.7861C160.789 93.7861 162.115 94.0718 163.257 94.6431C164.415 95.2144 165.381 96.0347 166.158 97.104C166.949 98.1587 167.542 99.4258 167.938 100.905C168.333 102.385 168.531 104.025 168.531 105.827ZM161.126 106.289V105.827C161.126 104.904 161.06 104.062 160.928 103.3C160.796 102.524 160.584 101.85 160.291 101.279C160.013 100.708 159.639 100.268 159.17 99.9604C158.702 99.6528 158.123 99.499 157.435 99.499C156.644 99.499 155.977 99.6235 155.435 99.8726C154.908 100.107 154.483 100.473 154.161 100.971C153.853 101.455 153.633 102.062 153.501 102.795C153.384 103.513 153.333 104.355 153.348 105.322V107.124C153.318 108.237 153.428 109.218 153.677 110.068C153.926 110.903 154.358 111.555 154.974 112.023C155.589 112.492 156.424 112.727 157.479 112.727C158.182 112.727 158.768 112.565 159.236 112.243C159.705 111.906 160.079 111.445 160.357 110.859C160.635 110.258 160.833 109.57 160.95 108.793C161.067 108.017 161.126 107.182 161.126 106.289ZM179.649 84.25V118H172.222V84.25H179.649ZM195.733 118.439C193.799 118.439 192.071 118.139 190.547 117.539C189.024 116.923 187.735 116.081 186.68 115.012C185.64 113.942 184.842 112.712 184.285 111.32C183.743 109.929 183.472 108.457 183.472 106.904V106.069C183.472 104.326 183.714 102.714 184.197 101.235C184.681 99.7407 185.398 98.437 186.351 97.3237C187.303 96.2104 188.497 95.3462 189.932 94.731C191.368 94.1011 193.038 93.7861 194.942 93.7861C196.626 93.7861 198.135 94.0571 199.468 94.5991C200.801 95.1411 201.929 95.9175 202.852 96.9282C203.79 97.939 204.5 99.1621 204.983 100.598C205.481 102.033 205.73 103.645 205.73 105.432V108.442H186.307V103.806H198.501V103.234C198.516 102.443 198.377 101.77 198.084 101.213C197.806 100.656 197.396 100.231 196.854 99.9385C196.312 99.6455 195.652 99.499 194.876 99.499C194.07 99.499 193.404 99.6748 192.876 100.026C192.364 100.378 191.961 100.861 191.668 101.477C191.39 102.077 191.192 102.773 191.075 103.564C190.958 104.355 190.899 105.19 190.899 106.069V106.904C190.899 107.783 191.016 108.581 191.25 109.299C191.5 110.017 191.851 110.632 192.305 111.145C192.774 111.643 193.331 112.031 193.975 112.309C194.634 112.587 195.381 112.727 196.216 112.727C197.227 112.727 198.223 112.536 199.205 112.155C200.186 111.774 201.028 111.145 201.731 110.266L205.093 114.265C204.61 114.953 203.921 115.62 203.028 116.264C202.149 116.909 201.094 117.436 199.864 117.846C198.633 118.242 197.256 118.439 195.733 118.439ZM216.211 99.2573V118H208.807V94.2256H215.75L216.211 99.2573ZM215.311 105.3L213.619 105.344C213.619 103.674 213.816 102.136 214.212 100.729C214.607 99.3232 215.193 98.1001 215.97 97.0601C216.746 96.02 217.698 95.2144 218.826 94.6431C219.969 94.0718 221.287 93.7861 222.781 93.7861C223.821 93.7861 224.766 93.9473 225.616 94.2695C226.465 94.5771 227.198 95.0679 227.813 95.7417C228.428 96.4009 228.897 97.2651 229.219 98.3345C229.556 99.3892 229.725 100.656 229.725 102.136V118H222.32V103.081C222.32 102.07 222.203 101.308 221.968 100.795C221.749 100.283 221.426 99.9385 221.001 99.7627C220.577 99.5869 220.057 99.499 219.441 99.499C218.797 99.499 218.218 99.6455 217.706 99.9385C217.193 100.231 216.753 100.642 216.387 101.169C216.036 101.682 215.765 102.29 215.574 102.993C215.398 103.696 215.311 104.465 215.311 105.3ZM228.89 105.3L226.824 105.344C226.824 103.674 227.007 102.136 227.374 100.729C227.754 99.3232 228.318 98.1001 229.065 97.0601C229.827 96.02 230.772 95.2144 231.9 94.6431C233.028 94.0718 234.339 93.7861 235.833 93.7861C236.917 93.7861 237.913 93.9473 238.821 94.2695C239.729 94.5918 240.513 95.1118 241.172 95.8296C241.832 96.5474 242.344 97.4995 242.71 98.686C243.077 99.8579 243.26 101.308 243.26 103.037V118H235.833V103.037C235.833 102.055 235.716 101.315 235.481 100.817C235.262 100.305 234.939 99.9604 234.515 99.7847C234.09 99.5942 233.584 99.499 232.999 99.499C232.295 99.499 231.688 99.6455 231.175 99.9385C230.662 100.231 230.23 100.642 229.878 101.169C229.542 101.682 229.292 102.29 229.131 102.993C228.97 103.696 228.89 104.465 228.89 105.3ZM259.014 118.439C257.081 118.439 255.352 118.139 253.829 117.539C252.305 116.923 251.016 116.081 249.961 115.012C248.921 113.942 248.123 112.712 247.566 111.32C247.024 109.929 246.753 108.457 246.753 106.904V106.069C246.753 104.326 246.995 102.714 247.479 101.235C247.962 99.7407 248.68 98.437 249.632 97.3237C250.584 96.2104 251.778 95.3462 253.213 94.731C254.649 94.1011 256.319 93.7861 258.223 93.7861C259.908 93.7861 261.417 94.0571 262.75 94.5991C264.083 95.1411 265.21 95.9175 266.133 96.9282C267.071 97.939 267.781 99.1621 268.265 100.598C268.763 102.033 269.012 103.645 269.012 105.432V108.442H249.588V103.806H261.783V103.234C261.797 102.443 261.658 101.77 261.365 101.213C261.087 100.656 260.677 100.231 260.135 99.9385C259.593 99.6455 258.934 99.499 258.157 99.499C257.352 99.499 256.685 99.6748 256.158 100.026C255.645 100.378 255.242 100.861 254.949 101.477C254.671 102.077 254.473 102.773 254.356 103.564C254.239 104.355 254.18 105.19 254.18 106.069V106.904C254.18 107.783 254.297 108.581 254.532 109.299C254.781 110.017 255.132 110.632 255.586 111.145C256.055 111.643 256.612 112.031 257.256 112.309C257.916 112.587 258.663 112.727 259.498 112.727C260.508 112.727 261.504 112.536 262.486 112.155C263.467 111.774 264.31 111.145 265.013 110.266L268.375 114.265C267.891 114.953 267.203 115.62 266.309 116.264C265.43 116.909 264.375 117.436 263.145 117.846C261.915 118.242 260.538 118.439 259.014 118.439ZM279.295 99.3013V118H271.89V94.2256H278.833L279.295 99.3013ZM278.416 105.3L276.68 105.344C276.68 103.527 276.9 101.909 277.339 100.488C277.779 99.0522 278.401 97.8364 279.207 96.8403C280.013 95.8442 280.972 95.0898 282.085 94.5771C283.213 94.0498 284.466 93.7861 285.843 93.7861C286.941 93.7861 287.945 93.9473 288.853 94.2695C289.776 94.5918 290.567 95.1118 291.226 95.8296C291.9 96.5474 292.413 97.4995 292.764 98.686C293.13 99.8579 293.313 101.308 293.313 103.037V118H285.865V103.015C285.865 102.062 285.733 101.337 285.469 100.839C285.206 100.327 284.825 99.9751 284.327 99.7847C283.829 99.5942 283.221 99.499 282.503 99.499C281.741 99.499 281.097 99.6455 280.569 99.9385C280.042 100.231 279.617 100.642 279.295 101.169C278.987 101.682 278.76 102.29 278.614 102.993C278.482 103.696 278.416 104.465 278.416 105.3ZM309.947 94.2256V99.3672H295.621V94.2256H309.947ZM298.631 88.3149H306.036V110.244C306.036 110.874 306.109 111.364 306.255 111.716C306.402 112.053 306.651 112.294 307.002 112.441C307.369 112.573 307.852 112.639 308.453 112.639C308.877 112.639 309.229 112.631 309.507 112.617C309.786 112.587 310.049 112.551 310.298 112.507V117.802C309.668 118.007 309.009 118.161 308.321 118.264C307.632 118.381 306.9 118.439 306.124 118.439C304.542 118.439 303.187 118.19 302.059 117.692C300.945 117.194 300.096 116.411 299.51 115.341C298.924 114.272 298.631 112.88 298.631 111.167V88.3149ZM325.24 112.023V102.224C325.24 101.55 325.145 100.971 324.954 100.488C324.764 100.004 324.463 99.6309 324.053 99.3672C323.643 99.0889 323.094 98.9497 322.405 98.9497C321.849 98.9497 321.373 99.0449 320.977 99.2354C320.582 99.4258 320.281 99.7114 320.076 100.092C319.871 100.473 319.769 100.957 319.769 101.542H312.364C312.364 100.444 312.605 99.4258 313.089 98.4883C313.587 97.5361 314.29 96.7085 315.198 96.0054C316.121 95.3022 317.22 94.7603 318.494 94.3794C319.783 93.9839 321.219 93.7861 322.801 93.7861C324.69 93.7861 326.375 94.1011 327.854 94.731C329.349 95.3608 330.528 96.3057 331.392 97.5654C332.256 98.8105 332.688 100.378 332.688 102.268V112.001C332.688 113.554 332.776 114.733 332.952 115.539C333.128 116.33 333.377 117.026 333.699 117.626V118H326.272C325.921 117.268 325.657 116.374 325.481 115.319C325.32 114.25 325.24 113.151 325.24 112.023ZM326.141 103.476L326.185 107.431H322.911C322.222 107.431 321.636 107.526 321.153 107.717C320.684 107.907 320.303 108.171 320.01 108.508C319.732 108.83 319.527 109.196 319.395 109.606C319.278 110.017 319.219 110.449 319.219 110.903C319.219 111.342 319.322 111.738 319.527 112.089C319.747 112.426 320.04 112.69 320.406 112.88C320.772 113.071 321.182 113.166 321.636 113.166C322.457 113.166 323.152 113.012 323.724 112.705C324.31 112.382 324.756 111.994 325.064 111.54C325.372 111.086 325.525 110.661 325.525 110.266L327.151 113.298C326.858 113.884 326.521 114.477 326.141 115.078C325.774 115.678 325.313 116.235 324.756 116.748C324.214 117.246 323.548 117.656 322.757 117.978C321.966 118.286 321.006 118.439 319.878 118.439C318.414 118.439 317.066 118.139 315.835 117.539C314.62 116.938 313.646 116.103 312.913 115.034C312.181 113.95 311.814 112.705 311.814 111.298C311.814 110.068 312.034 108.969 312.474 108.002C312.928 107.036 313.609 106.215 314.517 105.542C315.425 104.868 316.583 104.355 317.989 104.003C319.395 103.652 321.05 103.476 322.955 103.476H326.141ZM349.322 94.2256V99.3672H334.996V94.2256H349.322ZM338.006 88.3149H345.411V110.244C345.411 110.874 345.484 111.364 345.63 111.716C345.777 112.053 346.026 112.294 346.377 112.441C346.744 112.573 347.227 112.639 347.828 112.639C348.252 112.639 348.604 112.631 348.882 112.617C349.161 112.587 349.424 112.551 349.673 112.507V117.802C349.043 118.007 348.384 118.161 347.696 118.264C347.007 118.381 346.275 118.439 345.499 118.439C343.917 118.439 342.562 118.19 341.434 117.692C340.32 117.194 339.471 116.411 338.885 115.341C338.299 114.272 338.006 112.88 338.006 111.167V88.3149ZM360.088 94.2256V118H352.662V94.2256H360.088ZM352.222 88.0952C352.222 87.0405 352.603 86.1763 353.365 85.5024C354.126 84.8286 355.115 84.4917 356.331 84.4917C357.547 84.4917 358.536 84.8286 359.297 85.5024C360.059 86.1763 360.44 87.0405 360.44 88.0952C360.44 89.1499 360.059 90.0142 359.297 90.688C358.536 91.3618 357.547 91.6987 356.331 91.6987C355.115 91.6987 354.126 91.3618 353.365 90.688C352.603 90.0142 352.222 89.1499 352.222 88.0952ZM363.736 106.354V105.893C363.736 104.15 363.985 102.546 364.483 101.081C364.981 99.6016 365.713 98.3198 366.68 97.2358C367.647 96.1519 368.841 95.3096 370.262 94.709C371.683 94.0938 373.323 93.7861 375.184 93.7861C377.059 93.7861 378.707 94.0938 380.127 94.709C381.563 95.3096 382.764 96.1519 383.731 97.2358C384.698 98.3198 385.43 99.6016 385.928 101.081C386.426 102.546 386.675 104.15 386.675 105.893V106.354C386.675 108.083 386.426 109.687 385.928 111.167C385.43 112.631 384.698 113.913 383.731 115.012C382.764 116.096 381.57 116.938 380.149 117.539C378.729 118.139 377.088 118.439 375.228 118.439C373.367 118.439 371.719 118.139 370.284 117.539C368.848 116.938 367.647 116.096 366.68 115.012C365.713 113.913 364.981 112.631 364.483 111.167C363.985 109.687 363.736 108.083 363.736 106.354ZM371.141 105.893V106.354C371.141 107.248 371.207 108.083 371.338 108.859C371.47 109.636 371.69 110.317 371.998 110.903C372.305 111.474 372.723 111.921 373.25 112.243C373.777 112.565 374.437 112.727 375.228 112.727C376.004 112.727 376.648 112.565 377.161 112.243C377.688 111.921 378.106 111.474 378.414 110.903C378.721 110.317 378.941 109.636 379.073 108.859C379.205 108.083 379.271 107.248 379.271 106.354V105.893C379.271 105.029 379.205 104.216 379.073 103.454C378.941 102.678 378.721 101.997 378.414 101.411C378.106 100.81 377.688 100.341 377.161 100.004C376.634 99.6675 375.975 99.499 375.184 99.499C374.407 99.499 373.755 99.6675 373.228 100.004C372.715 100.341 372.305 100.81 371.998 101.411C371.69 101.997 371.47 102.678 371.338 103.454C371.207 104.216 371.141 105.029 371.141 105.893ZM397.244 99.3013V118H389.839V94.2256H396.783L397.244 99.3013ZM396.365 105.3L394.629 105.344C394.629 103.527 394.849 101.909 395.289 100.488C395.728 99.0522 396.351 97.8364 397.156 96.8403C397.962 95.8442 398.921 95.0898 400.035 94.5771C401.163 94.0498 402.415 93.7861 403.792 93.7861C404.891 93.7861 405.894 93.9473 406.802 94.2695C407.725 94.5918 408.516 95.1118 409.175 95.8296C409.849 96.5474 410.362 97.4995 410.713 98.686C411.08 99.8579 411.263 101.308 411.263 103.037V118H403.814V103.015C403.814 102.062 403.682 101.337 403.418 100.839C403.155 100.327 402.774 99.9751 402.276 99.7847C401.778 99.5942 401.17 99.499 400.452 99.499C399.69 99.499 399.046 99.6455 398.519 99.9385C397.991 100.231 397.566 100.642 397.244 101.169C396.937 101.682 396.709 102.29 396.563 102.993C396.431 103.696 396.365 104.465 396.365 105.3Z" fill="#424241"/>
<path d="M1363 15C1363 6.71573 1356.28 0 1348 0H1134V167H1348C1356.28 167 1363 160.284 1363 152V15Z" fill="#344E41"/>
<path d="M1281.5 49H1216.5L1214 51.5V116.5L1216.5 119H1281.5L1284 116.5V51.5L1281.5 49ZM1279 114H1234V104H1245.5C1247 107 1250.5 109 1254 109C1259.5 109 1264 104.5 1264 99C1264 93.5 1259.5 89 1254 89C1248.5 89 1244 93.5 1244 99H1229V114H1219V54H1229V65.5C1226 67 1224 70.5 1224 74C1224 79.5 1228.5 84 1234 84C1239.5 84 1244 79.5 1244 74H1254C1254 79.5 1258.5 84 1264 84C1269.5 84 1274 79.5 1274 74C1274 68.5 1269.5 64 1264 64C1260.5 64 1257 66 1255.5 69H1242.5C1241 66 1237.5 64 1234 64V54H1279V114ZM1249 99C1249 96 1251 94 1254 94C1257 94 1259 96 1259 99C1259 102 1257 104 1254 104C1251 104 1249 102 1249 99ZM1234 69C1237 69 1239 71 1239 74C1239 77 1237 79 1234 79C1231 79 1229 77 1229 74C1229 71 1231 69 1234 69ZM1264 69C1267 69 1269 71 1269 74C1269 77 1267 79 1264 79C1261 79 1259 77 1259 74C1259 71 1261 69 1264 69Z" fill="#D46C4E"/>
</svg>
