<svg width="1363" height="167" viewBox="0 0 1363 167" fill="none" xmlns="http://www.w3.org/2000/svg">
<rect width="1363" height="167" rx="15" fill="#F0F0F0"/>
<path d="M0 15C0 6.71573 6.71573 0 15 0H37V167H15C6.71573 167 0 160.284 0 152V15Z" fill="#344E41"/>
<path d="M103.414 52.3398H106.918C106.848 53.4883 106.531 54.5078 105.969 55.3984C105.414 56.2891 104.637 56.9844 103.637 57.4844C102.645 57.9844 101.449 58.2344 100.051 58.2344C98.957 58.2344 97.9766 58.0469 97.1094 57.6719C96.2422 57.2891 95.5 56.7422 94.8828 56.0312C94.2734 55.3203 93.8086 54.4609 93.4883 53.4531C93.168 52.4453 93.0078 51.3164 93.0078 50.0664V48.8828C93.0078 47.6328 93.1719 46.5039 93.5 45.4961C93.8359 44.4805 94.3125 43.6172 94.9297 42.9062C95.5547 42.1953 96.3008 41.6484 97.168 41.2656C98.0352 40.8828 99.0039 40.6914 100.074 40.6914C101.496 40.6914 102.695 40.9492 103.672 41.4648C104.656 41.9805 105.418 42.6914 105.957 43.5977C106.504 44.5039 106.832 45.5352 106.941 46.6914H103.426C103.387 46.0039 103.25 45.4219 103.016 44.9453C102.781 44.4609 102.426 44.0977 101.949 43.8555C101.48 43.6055 100.855 43.4805 100.074 43.4805C99.4883 43.4805 98.9766 43.5898 98.5391 43.8086C98.1016 44.0273 97.7344 44.3594 97.4375 44.8047C97.1406 45.25 96.918 45.8125 96.7695 46.4922C96.6289 47.1641 96.5586 47.9531 96.5586 48.8594V50.0664C96.5586 50.9492 96.625 51.7266 96.7578 52.3984C96.8906 53.0625 97.0938 53.625 97.3672 54.0859C97.6484 54.5391 98.0078 54.8828 98.4453 55.1172C98.8906 55.3438 99.4258 55.457 100.051 55.457C100.785 55.457 101.391 55.3398 101.867 55.1055C102.344 54.8711 102.707 54.5234 102.957 54.0625C103.215 53.6016 103.367 53.0273 103.414 52.3398ZM108.477 51.7891V51.543C108.477 50.6133 108.609 49.7578 108.875 48.9766C109.141 48.1875 109.527 47.5039 110.035 46.9258C110.543 46.3477 111.168 45.8984 111.91 45.5781C112.652 45.25 113.504 45.0859 114.465 45.0859C115.426 45.0859 116.281 45.25 117.031 45.5781C117.781 45.8984 118.41 46.3477 118.918 46.9258C119.434 47.5039 119.824 48.1875 120.09 48.9766C120.355 49.7578 120.488 50.6133 120.488 51.543V51.7891C120.488 52.7109 120.355 53.5664 120.09 54.3555C119.824 55.1367 119.434 55.8203 118.918 56.4062C118.41 56.9844 117.785 57.4336 117.043 57.7539C116.301 58.0742 115.449 58.2344 114.488 58.2344C113.527 58.2344 112.672 58.0742 111.922 57.7539C111.18 57.4336 110.551 56.9844 110.035 56.4062C109.527 55.8203 109.141 55.1367 108.875 54.3555C108.609 53.5664 108.477 52.7109 108.477 51.7891ZM111.852 51.543V51.7891C111.852 52.3203 111.898 52.8164 111.992 53.2773C112.086 53.7383 112.234 54.1445 112.438 54.4961C112.648 54.8398 112.922 55.1094 113.258 55.3047C113.594 55.5 114.004 55.5977 114.488 55.5977C114.957 55.5977 115.359 55.5 115.695 55.3047C116.031 55.1094 116.301 54.8398 116.504 54.4961C116.707 54.1445 116.855 53.7383 116.949 53.2773C117.051 52.8164 117.102 52.3203 117.102 51.7891V51.543C117.102 51.0273 117.051 50.543 116.949 50.0898C116.855 49.6289 116.703 49.2227 116.492 48.8711C116.289 48.5117 116.02 48.2305 115.684 48.0273C115.348 47.8242 114.941 47.7227 114.465 47.7227C113.988 47.7227 113.582 47.8242 113.246 48.0273C112.918 48.2305 112.648 48.5117 112.438 48.8711C112.234 49.2227 112.086 49.6289 111.992 50.0898C111.898 50.543 111.852 51.0273 111.852 51.543ZM126.184 54.7188L128.82 45.3203H130.965L130.273 49.0117L127.637 58H125.844L126.184 54.7188ZM124.848 45.3203L126.734 54.707L126.91 58H124.801L121.59 45.3203H124.848ZM133.379 54.5547L135.219 45.3203H138.488L135.277 58H133.18L133.379 54.5547ZM131.258 45.3203L133.883 54.6484L134.246 58H132.441L129.805 49.0234L129.137 45.3203H131.258ZM147.043 51.918H142.695V49.1758H147.043C147.715 49.1758 148.262 49.0664 148.684 48.8477C149.105 48.6211 149.414 48.3086 149.609 47.9102C149.805 47.5117 149.902 47.0625 149.902 46.5625C149.902 46.0547 149.805 45.582 149.609 45.1445C149.414 44.707 149.105 44.3555 148.684 44.0898C148.262 43.8242 147.715 43.6914 147.043 43.6914H143.914V58H140.398V40.9375H147.043C148.379 40.9375 149.523 41.1797 150.477 41.6641C151.438 42.1406 152.172 42.8008 152.68 43.6445C153.188 44.4883 153.441 45.4531 153.441 46.5391C153.441 47.6406 153.188 48.5938 152.68 49.3984C152.172 50.2031 151.438 50.8242 150.477 51.2617C149.523 51.6992 148.379 51.918 147.043 51.918ZM162.359 55.1406V49.4922C162.359 49.0859 162.293 48.7383 162.16 48.4492C162.027 48.1523 161.82 47.9219 161.539 47.7578C161.266 47.5938 160.91 47.5117 160.473 47.5117C160.098 47.5117 159.773 47.5781 159.5 47.7109C159.227 47.8359 159.016 48.0195 158.867 48.2617C158.719 48.4961 158.645 48.7734 158.645 49.0938H155.27C155.27 48.5547 155.395 48.043 155.645 47.5586C155.895 47.0742 156.258 46.6484 156.734 46.2812C157.211 45.9062 157.777 45.6133 158.434 45.4023C159.098 45.1914 159.84 45.0859 160.66 45.0859C161.645 45.0859 162.52 45.25 163.285 45.5781C164.051 45.9062 164.652 46.3984 165.09 47.0547C165.535 47.7109 165.758 48.5312 165.758 49.5156V54.9414C165.758 55.6367 165.801 56.207 165.887 56.6523C165.973 57.0898 166.098 57.4727 166.262 57.8008V58H162.852C162.688 57.6562 162.562 57.2266 162.477 56.7109C162.398 56.1875 162.359 55.6641 162.359 55.1406ZM162.805 50.2773L162.828 52.1875H160.941C160.496 52.1875 160.109 52.2383 159.781 52.3398C159.453 52.4414 159.184 52.5859 158.973 52.7734C158.762 52.9531 158.605 53.1641 158.504 53.4062C158.41 53.6484 158.363 53.9141 158.363 54.2031C158.363 54.4922 158.43 54.7539 158.562 54.9883C158.695 55.2148 158.887 55.3945 159.137 55.5273C159.387 55.6523 159.68 55.7148 160.016 55.7148C160.523 55.7148 160.965 55.6133 161.34 55.4102C161.715 55.207 162.004 54.957 162.207 54.6602C162.418 54.3633 162.527 54.082 162.535 53.8164L163.426 55.2461C163.301 55.5664 163.129 55.8984 162.91 56.2422C162.699 56.5859 162.43 56.9102 162.102 57.2148C161.773 57.5117 161.379 57.7578 160.918 57.9531C160.457 58.1406 159.91 58.2344 159.277 58.2344C158.473 58.2344 157.742 58.0742 157.086 57.7539C156.438 57.4258 155.922 56.9766 155.539 56.4062C155.164 55.8281 154.977 55.1719 154.977 54.4375C154.977 53.7734 155.102 53.1836 155.352 52.668C155.602 52.1523 155.969 51.7188 156.453 51.3672C156.945 51.0078 157.559 50.7383 158.293 50.5586C159.027 50.3711 159.879 50.2773 160.848 50.2773H162.805ZM171.664 48.0273V58H168.289V45.3203H171.453L171.664 48.0273ZM171.172 51.2148H170.258C170.258 50.2773 170.379 49.4336 170.621 48.6836C170.863 47.9258 171.203 47.2812 171.641 46.75C172.078 46.2109 172.598 45.8008 173.199 45.5195C173.809 45.2305 174.488 45.0859 175.238 45.0859C175.832 45.0859 176.375 45.1719 176.867 45.3438C177.359 45.5156 177.781 45.7891 178.133 46.1641C178.492 46.5391 178.766 47.0352 178.953 47.6523C179.148 48.2695 179.246 49.0234 179.246 49.9141V58H175.848V49.9023C175.848 49.3398 175.77 48.9023 175.613 48.5898C175.457 48.2773 175.227 48.0586 174.922 47.9336C174.625 47.8008 174.258 47.7344 173.82 47.7344C173.367 47.7344 172.973 47.8242 172.637 48.0039C172.309 48.1836 172.035 48.4336 171.816 48.7539C171.605 49.0664 171.445 49.4336 171.336 49.8555C171.227 50.2773 171.172 50.7305 171.172 51.2148ZM185.375 45.3203V58H181.988V45.3203H185.375ZM181.777 42.0156C181.777 41.5234 181.949 41.1172 182.293 40.7969C182.637 40.4766 183.098 40.3164 183.676 40.3164C184.246 40.3164 184.703 40.4766 185.047 40.7969C185.398 41.1172 185.574 41.5234 185.574 42.0156C185.574 42.5078 185.398 42.9141 185.047 43.2344C184.703 43.5547 184.246 43.7148 183.676 43.7148C183.098 43.7148 182.637 43.5547 182.293 43.2344C181.949 42.9141 181.777 42.5078 181.777 42.0156ZM187.625 51.7891V51.543C187.625 50.6133 187.758 49.7578 188.023 48.9766C188.289 48.1875 188.676 47.5039 189.184 46.9258C189.691 46.3477 190.316 45.8984 191.059 45.5781C191.801 45.25 192.652 45.0859 193.613 45.0859C194.574 45.0859 195.43 45.25 196.18 45.5781C196.93 45.8984 197.559 46.3477 198.066 46.9258C198.582 47.5039 198.973 48.1875 199.238 48.9766C199.504 49.7578 199.637 50.6133 199.637 51.543V51.7891C199.637 52.7109 199.504 53.5664 199.238 54.3555C198.973 55.1367 198.582 55.8203 198.066 56.4062C197.559 56.9844 196.934 57.4336 196.191 57.7539C195.449 58.0742 194.598 58.2344 193.637 58.2344C192.676 58.2344 191.82 58.0742 191.07 57.7539C190.328 57.4336 189.699 56.9844 189.184 56.4062C188.676 55.8203 188.289 55.1367 188.023 54.3555C187.758 53.5664 187.625 52.7109 187.625 51.7891ZM191 51.543V51.7891C191 52.3203 191.047 52.8164 191.141 53.2773C191.234 53.7383 191.383 54.1445 191.586 54.4961C191.797 54.8398 192.07 55.1094 192.406 55.3047C192.742 55.5 193.152 55.5977 193.637 55.5977C194.105 55.5977 194.508 55.5 194.844 55.3047C195.18 55.1094 195.449 54.8398 195.652 54.4961C195.855 54.1445 196.004 53.7383 196.098 53.2773C196.199 52.8164 196.25 52.3203 196.25 51.7891V51.543C196.25 51.0273 196.199 50.543 196.098 50.0898C196.004 49.6289 195.852 49.2227 195.641 48.8711C195.438 48.5117 195.168 48.2305 194.832 48.0273C194.496 47.8242 194.09 47.7227 193.613 47.7227C193.137 47.7227 192.73 47.8242 192.395 48.0273C192.066 48.2305 191.797 48.5117 191.586 48.8711C191.383 49.2227 191.234 49.6289 191.141 50.0898C191.047 50.543 191 51.0273 191 51.543ZM205.016 48.0273V58H201.641V45.3203H204.805L205.016 48.0273ZM204.523 51.2148H203.609C203.609 50.2773 203.73 49.4336 203.973 48.6836C204.215 47.9258 204.555 47.2812 204.992 46.75C205.43 46.2109 205.949 45.8008 206.551 45.5195C207.16 45.2305 207.84 45.0859 208.59 45.0859C209.184 45.0859 209.727 45.1719 210.219 45.3438C210.711 45.5156 211.133 45.7891 211.484 46.1641C211.844 46.5391 212.117 47.0352 212.305 47.6523C212.5 48.2695 212.598 49.0234 212.598 49.9141V58H209.199V49.9023C209.199 49.3398 209.121 48.9023 208.965 48.5898C208.809 48.2773 208.578 48.0586 208.273 47.9336C207.977 47.8008 207.609 47.7344 207.172 47.7344C206.719 47.7344 206.324 47.8242 205.988 48.0039C205.66 48.1836 205.387 48.4336 205.168 48.7539C204.957 49.0664 204.797 49.4336 204.688 49.8555C204.578 50.2773 204.523 50.7305 204.523 51.2148Z" fill="#888888"/>
<path d="M115.994 98.708V104.641H99.5806V98.708H115.994ZM102.151 86.0078V118H94.439V86.0078H102.151ZM121.18 86.0078V118H113.489V86.0078H121.18ZM124.805 106.354V105.893C124.805 104.15 125.054 102.546 125.552 101.081C126.05 99.6016 126.783 98.3198 127.75 97.2358C128.716 96.1519 129.91 95.3096 131.331 94.709C132.752 94.0938 134.393 93.7861 136.253 93.7861C138.128 93.7861 139.776 94.0938 141.197 94.709C142.632 95.3096 143.833 96.1519 144.8 97.2358C145.767 98.3198 146.5 99.6016 146.998 101.081C147.496 102.546 147.745 104.15 147.745 105.893V106.354C147.745 108.083 147.496 109.687 146.998 111.167C146.5 112.631 145.767 113.913 144.8 115.012C143.833 116.096 142.64 116.938 141.219 117.539C139.798 118.139 138.157 118.439 136.297 118.439C134.437 118.439 132.789 118.139 131.353 117.539C129.917 116.938 128.716 116.096 127.75 115.012C126.783 113.913 126.05 112.631 125.552 111.167C125.054 109.687 124.805 108.083 124.805 106.354ZM132.21 105.893V106.354C132.21 107.248 132.276 108.083 132.408 108.859C132.54 109.636 132.759 110.317 133.067 110.903C133.375 111.474 133.792 111.921 134.319 112.243C134.847 112.565 135.506 112.727 136.297 112.727C137.073 112.727 137.718 112.565 138.23 112.243C138.758 111.921 139.175 111.474 139.483 110.903C139.791 110.317 140.01 109.636 140.142 108.859C140.274 108.083 140.34 107.248 140.34 106.354V105.893C140.34 105.029 140.274 104.216 140.142 103.454C140.01 102.678 139.791 101.997 139.483 101.411C139.175 100.81 138.758 100.341 138.23 100.004C137.703 99.6675 137.044 99.499 136.253 99.499C135.477 99.499 134.825 99.6675 134.297 100.004C133.785 100.341 133.375 100.81 133.067 101.411C132.759 101.997 132.54 102.678 132.408 103.454C132.276 104.216 132.21 105.029 132.21 105.893ZM158.27 110.925L162.664 94.2256H167.3L165.652 102.597L161.302 118H157.588L158.27 110.925ZM156.534 94.2256L159.258 110.793L159.566 118H155.062L149.437 94.2256H156.534ZM171.211 110.441L173.958 94.2256H181.055L175.474 118H170.97L171.211 110.441ZM167.828 94.2256L172.266 110.881L172.947 118H169.19L164.927 102.641L163.345 94.2256H167.828ZM209.466 86.0078V118H201.753V86.0078H209.466ZM219.09 86.0078V91.9624H192.349V86.0078H219.09ZM216.475 106.354V105.893C216.475 104.15 216.724 102.546 217.222 101.081C217.72 99.6016 218.453 98.3198 219.419 97.2358C220.386 96.1519 221.58 95.3096 223.001 94.709C224.422 94.0938 226.062 93.7861 227.923 93.7861C229.798 93.7861 231.446 94.0938 232.867 94.709C234.302 95.3096 235.503 96.1519 236.47 97.2358C237.437 98.3198 238.169 99.6016 238.667 101.081C239.166 102.546 239.415 104.15 239.415 105.893V106.354C239.415 108.083 239.166 109.687 238.667 111.167C238.169 112.631 237.437 113.913 236.47 115.012C235.503 116.096 234.31 116.938 232.889 117.539C231.468 118.139 229.827 118.439 227.967 118.439C226.106 118.439 224.458 118.139 223.023 117.539C221.587 116.938 220.386 116.096 219.419 115.012C218.453 113.913 217.72 112.631 217.222 111.167C216.724 109.687 216.475 108.083 216.475 106.354ZM223.88 105.893V106.354C223.88 107.248 223.946 108.083 224.078 108.859C224.209 109.636 224.429 110.317 224.737 110.903C225.044 111.474 225.462 111.921 225.989 112.243C226.517 112.565 227.176 112.727 227.967 112.727C228.743 112.727 229.388 112.565 229.9 112.243C230.428 111.921 230.845 111.474 231.153 110.903C231.46 110.317 231.68 109.636 231.812 108.859C231.944 108.083 232.01 107.248 232.01 106.354V105.893C232.01 105.029 231.944 104.216 231.812 103.454C231.68 102.678 231.46 101.997 231.153 101.411C230.845 100.81 230.428 100.341 229.9 100.004C229.373 99.6675 228.714 99.499 227.923 99.499C227.146 99.499 226.495 99.6675 225.967 100.004C225.455 100.341 225.044 100.81 224.737 101.411C224.429 101.997 224.209 102.678 224.078 103.454C223.946 104.216 223.88 105.029 223.88 105.893ZM254.268 86.0078H266.858C269.319 86.0078 271.458 86.374 273.274 87.1064C275.091 87.8389 276.49 88.9229 277.471 90.3584C278.467 91.7939 278.965 93.5664 278.965 95.6758C278.965 97.5068 278.68 99.0376 278.108 100.268C277.537 101.499 276.739 102.517 275.713 103.322C274.703 104.113 273.523 104.765 272.176 105.278L269.649 106.706H259.08L259.036 100.751H266.858C267.84 100.751 268.653 100.576 269.297 100.224C269.942 99.8726 270.425 99.3745 270.748 98.73C271.084 98.0708 271.253 97.2871 271.253 96.3789C271.253 95.4561 271.084 94.665 270.748 94.0059C270.411 93.3467 269.913 92.8413 269.253 92.4897C268.609 92.1382 267.811 91.9624 266.858 91.9624H261.98V118H254.268V86.0078ZM271.78 118L264.705 103.85L272.879 103.806L280.042 117.67V118H271.78ZM297.159 112.221V94.2256H304.585V118H297.642L297.159 112.221ZM297.862 107.387L299.795 107.343C299.795 108.94 299.605 110.419 299.224 111.782C298.843 113.129 298.279 114.301 297.532 115.297C296.8 116.293 295.892 117.07 294.808 117.626C293.738 118.168 292.5 118.439 291.094 118.439C289.922 118.439 288.846 118.278 287.864 117.956C286.897 117.619 286.062 117.099 285.359 116.396C284.656 115.678 284.107 114.763 283.711 113.649C283.331 112.521 283.14 111.174 283.14 109.606V94.2256H290.545V109.65C290.545 110.178 290.611 110.632 290.743 111.013C290.875 111.394 291.065 111.716 291.314 111.979C291.563 112.229 291.871 112.419 292.237 112.551C292.618 112.668 293.05 112.727 293.533 112.727C294.646 112.727 295.518 112.492 296.148 112.023C296.778 111.555 297.217 110.917 297.466 110.112C297.73 109.306 297.862 108.398 297.862 107.387ZM315.945 99.3013V118H308.541V94.2256H315.484L315.945 99.3013ZM315.066 105.3L313.331 105.344C313.331 103.527 313.55 101.909 313.99 100.488C314.429 99.0522 315.052 97.8364 315.857 96.8403C316.663 95.8442 317.623 95.0898 318.736 94.5771C319.864 94.0498 321.116 93.7861 322.493 93.7861C323.592 93.7861 324.595 93.9473 325.503 94.2695C326.426 94.5918 327.217 95.1118 327.876 95.8296C328.55 96.5474 329.063 97.4995 329.415 98.686C329.781 99.8579 329.964 101.308 329.964 103.037V118H322.515V103.015C322.515 102.062 322.383 101.337 322.12 100.839C321.856 100.327 321.475 99.9751 320.977 99.7847C320.479 99.5942 319.871 99.499 319.153 99.499C318.392 99.499 317.747 99.6455 317.22 99.9385C316.692 100.231 316.268 100.642 315.945 101.169C315.638 101.682 315.411 102.29 315.264 102.993C315.132 103.696 315.066 104.465 315.066 105.3ZM345.85 107.871H339.544C339.544 106.582 339.632 105.446 339.808 104.465C339.998 103.469 340.32 102.575 340.774 101.784C341.229 100.993 341.844 100.261 342.62 99.5869C343.309 99.0156 343.902 98.4663 344.4 97.939C344.898 97.4116 345.279 96.877 345.542 96.335C345.806 95.793 345.938 95.2144 345.938 94.5991C345.938 93.8374 345.828 93.2148 345.608 92.7314C345.403 92.248 345.088 91.8892 344.664 91.6548C344.253 91.4058 343.733 91.2812 343.104 91.2812C342.591 91.2812 342.107 91.4058 341.653 91.6548C341.214 91.9038 340.855 92.292 340.577 92.8193C340.298 93.332 340.145 94.0132 340.115 94.8628H332.667C332.71 92.6802 333.194 90.9077 334.117 89.5454C335.054 88.1685 336.299 87.165 337.852 86.5352C339.419 85.8906 341.17 85.5684 343.104 85.5684C345.242 85.5684 347.081 85.8979 348.619 86.5571C350.157 87.2163 351.336 88.1978 352.156 89.5015C352.977 90.7905 353.387 92.3799 353.387 94.2695C353.387 95.5293 353.145 96.6279 352.662 97.5654C352.193 98.4883 351.556 99.3525 350.75 100.158C349.959 100.949 349.073 101.799 348.091 102.707C347.242 103.454 346.663 104.216 346.355 104.992C346.048 105.754 345.879 106.713 345.85 107.871ZM338.643 114.55C338.643 113.496 339.024 112.617 339.786 111.914C340.547 111.196 341.536 110.837 342.752 110.837C343.968 110.837 344.957 111.196 345.718 111.914C346.48 112.617 346.861 113.496 346.861 114.55C346.861 115.605 346.48 116.491 345.718 117.209C344.957 117.912 343.968 118.264 342.752 118.264C341.536 118.264 340.547 117.912 339.786 117.209C339.024 116.491 338.643 115.605 338.643 114.55Z" fill="#424241"/>
<path d="M1363 15C1363 6.71573 1356.28 0 1348 0H1134V167H1348C1356.28 167 1363 160.284 1363 152V15Z" fill="#344E41"/>
<path d="M1260.77 81.3079C1263.96 81.3079 1267.09 82.2553 1269.74 84.0303C1272.4 85.8053 1274.47 88.3282 1275.69 91.2799C1276.92 94.2316 1277.24 97.4796 1276.61 100.613C1275.99 103.747 1274.45 106.625 1272.19 108.884C1269.93 111.143 1267.05 112.682 1263.92 113.305C1260.79 113.928 1257.54 113.608 1254.59 112.386C1251.64 111.163 1249.11 109.093 1247.34 106.436C1245.56 103.78 1244.62 100.657 1244.62 97.4617C1244.62 93.1774 1246.32 89.0686 1249.35 86.0392C1252.38 83.0098 1256.48 81.3079 1260.77 81.3079ZM1260.77 75.9233C1256.51 75.9233 1252.35 77.1865 1248.8 79.5532C1245.26 81.9198 1242.5 85.2837 1240.87 89.2193C1239.24 93.1549 1238.81 97.4856 1239.64 101.664C1240.48 105.842 1242.53 109.679 1245.54 112.692C1248.55 115.704 1252.39 117.755 1256.57 118.586C1260.75 119.417 1265.08 118.991 1269.01 117.361C1272.95 115.73 1276.31 112.97 1278.68 109.428C1281.04 105.886 1282.31 101.722 1282.31 97.4617C1282.31 91.7493 1280.04 86.271 1276 82.2317C1271.96 78.1925 1266.48 75.9233 1260.77 75.9233Z" fill="#D46C4E"/>
<path d="M1274.23 49H1220.38C1218.96 49 1217.59 49.5673 1216.58 50.5771C1215.57 51.5869 1215 52.9565 1215 54.3846V108.231C1215 109.659 1215.57 111.028 1216.58 112.038C1217.59 113.048 1218.96 113.615 1220.38 113.615H1231.15V108.231H1220.38V70.5384H1279.62V54.3846C1279.62 52.9565 1279.05 51.5869 1278.04 50.5771C1277.03 49.5673 1275.66 49 1274.23 49ZM1220.38 65.1538V54.3846H1274.23V65.1538H1220.38Z" fill="#D46C4E"/>
<path d="M1255.38 89.3849V105.539L1268.85 97.4618L1255.38 89.3849Z" fill="#D46C4E"/>
</svg>
