<svg width="1363" height="167" viewBox="0 0 1363 167" fill="none" xmlns="http://www.w3.org/2000/svg">
<rect width="1363" height="167" rx="15" fill="#F0F0F0"/>
<path d="M0 15C0 6.71573 6.71573 0 15 0H37V167H15C6.71573 167 0 160.284 0 152V15Z" fill="#344E41"/>
<path d="M103.414 52.3398H106.918C106.848 53.4883 106.531 54.5078 105.969 55.3984C105.414 56.2891 104.637 56.9844 103.637 57.4844C102.645 57.9844 101.449 58.2344 100.051 58.2344C98.957 58.2344 97.9766 58.0469 97.1094 57.6719C96.2422 57.2891 95.5 56.7422 94.8828 56.0312C94.2734 55.3203 93.8086 54.4609 93.4883 53.4531C93.168 52.4453 93.0078 51.3164 93.0078 50.0664V48.8828C93.0078 47.6328 93.1719 46.5039 93.5 45.4961C93.8359 44.4805 94.3125 43.6172 94.9297 42.9062C95.5547 42.1953 96.3008 41.6484 97.168 41.2656C98.0352 40.8828 99.0039 40.6914 100.074 40.6914C101.496 40.6914 102.695 40.9492 103.672 41.4648C104.656 41.9805 105.418 42.6914 105.957 43.5977C106.504 44.5039 106.832 45.5352 106.941 46.6914H103.426C103.387 46.0039 103.25 45.4219 103.016 44.9453C102.781 44.4609 102.426 44.0977 101.949 43.8555C101.48 43.6055 100.855 43.4805 100.074 43.4805C99.4883 43.4805 98.9766 43.5898 98.5391 43.8086C98.1016 44.0273 97.7344 44.3594 97.4375 44.8047C97.1406 45.25 96.918 45.8125 96.7695 46.4922C96.6289 47.1641 96.5586 47.9531 96.5586 48.8594V50.0664C96.5586 50.9492 96.625 51.7266 96.7578 52.3984C96.8906 53.0625 97.0938 53.625 97.3672 54.0859C97.6484 54.5391 98.0078 54.8828 98.4453 55.1172C98.8906 55.3438 99.4258 55.457 100.051 55.457C100.785 55.457 101.391 55.3398 101.867 55.1055C102.344 54.8711 102.707 54.5234 102.957 54.0625C103.215 53.6016 103.367 53.0273 103.414 52.3398ZM108.477 51.7891V51.543C108.477 50.6133 108.609 49.7578 108.875 48.9766C109.141 48.1875 109.527 47.5039 110.035 46.9258C110.543 46.3477 111.168 45.8984 111.91 45.5781C112.652 45.25 113.504 45.0859 114.465 45.0859C115.426 45.0859 116.281 45.25 117.031 45.5781C117.781 45.8984 118.41 46.3477 118.918 46.9258C119.434 47.5039 119.824 48.1875 120.09 48.9766C120.355 49.7578 120.488 50.6133 120.488 51.543V51.7891C120.488 52.7109 120.355 53.5664 120.09 54.3555C119.824 55.1367 119.434 55.8203 118.918 56.4062C118.41 56.9844 117.785 57.4336 117.043 57.7539C116.301 58.0742 115.449 58.2344 114.488 58.2344C113.527 58.2344 112.672 58.0742 111.922 57.7539C111.18 57.4336 110.551 56.9844 110.035 56.4062C109.527 55.8203 109.141 55.1367 108.875 54.3555C108.609 53.5664 108.477 52.7109 108.477 51.7891ZM111.852 51.543V51.7891C111.852 52.3203 111.898 52.8164 111.992 53.2773C112.086 53.7383 112.234 54.1445 112.438 54.4961C112.648 54.8398 112.922 55.1094 113.258 55.3047C113.594 55.5 114.004 55.5977 114.488 55.5977C114.957 55.5977 115.359 55.5 115.695 55.3047C116.031 55.1094 116.301 54.8398 116.504 54.4961C116.707 54.1445 116.855 53.7383 116.949 53.2773C117.051 52.8164 117.102 52.3203 117.102 51.7891V51.543C117.102 51.0273 117.051 50.543 116.949 50.0898C116.855 49.6289 116.703 49.2227 116.492 48.8711C116.289 48.5117 116.02 48.2305 115.684 48.0273C115.348 47.8242 114.941 47.7227 114.465 47.7227C113.988 47.7227 113.582 47.8242 113.246 48.0273C112.918 48.2305 112.648 48.5117 112.438 48.8711C112.234 49.2227 112.086 49.6289 111.992 50.0898C111.898 50.543 111.852 51.0273 111.852 51.543ZM126.184 54.7188L128.82 45.3203H130.965L130.273 49.0117L127.637 58H125.844L126.184 54.7188ZM124.848 45.3203L126.734 54.707L126.91 58H124.801L121.59 45.3203H124.848ZM133.379 54.5547L135.219 45.3203H138.488L135.277 58H133.18L133.379 54.5547ZM131.258 45.3203L133.883 54.6484L134.246 58H132.441L129.805 49.0234L129.137 45.3203H131.258ZM147.043 51.918H142.695V49.1758H147.043C147.715 49.1758 148.262 49.0664 148.684 48.8477C149.105 48.6211 149.414 48.3086 149.609 47.9102C149.805 47.5117 149.902 47.0625 149.902 46.5625C149.902 46.0547 149.805 45.582 149.609 45.1445C149.414 44.707 149.105 44.3555 148.684 44.0898C148.262 43.8242 147.715 43.6914 147.043 43.6914H143.914V58H140.398V40.9375H147.043C148.379 40.9375 149.523 41.1797 150.477 41.6641C151.438 42.1406 152.172 42.8008 152.68 43.6445C153.188 44.4883 153.441 45.4531 153.441 46.5391C153.441 47.6406 153.188 48.5938 152.68 49.3984C152.172 50.2031 151.438 50.8242 150.477 51.2617C149.523 51.6992 148.379 51.918 147.043 51.918ZM162.359 55.1406V49.4922C162.359 49.0859 162.293 48.7383 162.16 48.4492C162.027 48.1523 161.82 47.9219 161.539 47.7578C161.266 47.5938 160.91 47.5117 160.473 47.5117C160.098 47.5117 159.773 47.5781 159.5 47.7109C159.227 47.8359 159.016 48.0195 158.867 48.2617C158.719 48.4961 158.645 48.7734 158.645 49.0938H155.27C155.27 48.5547 155.395 48.043 155.645 47.5586C155.895 47.0742 156.258 46.6484 156.734 46.2812C157.211 45.9062 157.777 45.6133 158.434 45.4023C159.098 45.1914 159.84 45.0859 160.66 45.0859C161.645 45.0859 162.52 45.25 163.285 45.5781C164.051 45.9062 164.652 46.3984 165.09 47.0547C165.535 47.7109 165.758 48.5312 165.758 49.5156V54.9414C165.758 55.6367 165.801 56.207 165.887 56.6523C165.973 57.0898 166.098 57.4727 166.262 57.8008V58H162.852C162.688 57.6562 162.562 57.2266 162.477 56.7109C162.398 56.1875 162.359 55.6641 162.359 55.1406ZM162.805 50.2773L162.828 52.1875H160.941C160.496 52.1875 160.109 52.2383 159.781 52.3398C159.453 52.4414 159.184 52.5859 158.973 52.7734C158.762 52.9531 158.605 53.1641 158.504 53.4062C158.41 53.6484 158.363 53.9141 158.363 54.2031C158.363 54.4922 158.43 54.7539 158.562 54.9883C158.695 55.2148 158.887 55.3945 159.137 55.5273C159.387 55.6523 159.68 55.7148 160.016 55.7148C160.523 55.7148 160.965 55.6133 161.34 55.4102C161.715 55.207 162.004 54.957 162.207 54.6602C162.418 54.3633 162.527 54.082 162.535 53.8164L163.426 55.2461C163.301 55.5664 163.129 55.8984 162.91 56.2422C162.699 56.5859 162.43 56.9102 162.102 57.2148C161.773 57.5117 161.379 57.7578 160.918 57.9531C160.457 58.1406 159.91 58.2344 159.277 58.2344C158.473 58.2344 157.742 58.0742 157.086 57.7539C156.438 57.4258 155.922 56.9766 155.539 56.4062C155.164 55.8281 154.977 55.1719 154.977 54.4375C154.977 53.7734 155.102 53.1836 155.352 52.668C155.602 52.1523 155.969 51.7188 156.453 51.3672C156.945 51.0078 157.559 50.7383 158.293 50.5586C159.027 50.3711 159.879 50.2773 160.848 50.2773H162.805ZM171.664 48.0273V58H168.289V45.3203H171.453L171.664 48.0273ZM171.172 51.2148H170.258C170.258 50.2773 170.379 49.4336 170.621 48.6836C170.863 47.9258 171.203 47.2812 171.641 46.75C172.078 46.2109 172.598 45.8008 173.199 45.5195C173.809 45.2305 174.488 45.0859 175.238 45.0859C175.832 45.0859 176.375 45.1719 176.867 45.3438C177.359 45.5156 177.781 45.7891 178.133 46.1641C178.492 46.5391 178.766 47.0352 178.953 47.6523C179.148 48.2695 179.246 49.0234 179.246 49.9141V58H175.848V49.9023C175.848 49.3398 175.77 48.9023 175.613 48.5898C175.457 48.2773 175.227 48.0586 174.922 47.9336C174.625 47.8008 174.258 47.7344 173.82 47.7344C173.367 47.7344 172.973 47.8242 172.637 48.0039C172.309 48.1836 172.035 48.4336 171.816 48.7539C171.605 49.0664 171.445 49.4336 171.336 49.8555C171.227 50.2773 171.172 50.7305 171.172 51.2148ZM185.375 45.3203V58H181.988V45.3203H185.375ZM181.777 42.0156C181.777 41.5234 181.949 41.1172 182.293 40.7969C182.637 40.4766 183.098 40.3164 183.676 40.3164C184.246 40.3164 184.703 40.4766 185.047 40.7969C185.398 41.1172 185.574 41.5234 185.574 42.0156C185.574 42.5078 185.398 42.9141 185.047 43.2344C184.703 43.5547 184.246 43.7148 183.676 43.7148C183.098 43.7148 182.637 43.5547 182.293 43.2344C181.949 42.9141 181.777 42.5078 181.777 42.0156ZM187.625 51.7891V51.543C187.625 50.6133 187.758 49.7578 188.023 48.9766C188.289 48.1875 188.676 47.5039 189.184 46.9258C189.691 46.3477 190.316 45.8984 191.059 45.5781C191.801 45.25 192.652 45.0859 193.613 45.0859C194.574 45.0859 195.43 45.25 196.18 45.5781C196.93 45.8984 197.559 46.3477 198.066 46.9258C198.582 47.5039 198.973 48.1875 199.238 48.9766C199.504 49.7578 199.637 50.6133 199.637 51.543V51.7891C199.637 52.7109 199.504 53.5664 199.238 54.3555C198.973 55.1367 198.582 55.8203 198.066 56.4062C197.559 56.9844 196.934 57.4336 196.191 57.7539C195.449 58.0742 194.598 58.2344 193.637 58.2344C192.676 58.2344 191.82 58.0742 191.07 57.7539C190.328 57.4336 189.699 56.9844 189.184 56.4062C188.676 55.8203 188.289 55.1367 188.023 54.3555C187.758 53.5664 187.625 52.7109 187.625 51.7891ZM191 51.543V51.7891C191 52.3203 191.047 52.8164 191.141 53.2773C191.234 53.7383 191.383 54.1445 191.586 54.4961C191.797 54.8398 192.07 55.1094 192.406 55.3047C192.742 55.5 193.152 55.5977 193.637 55.5977C194.105 55.5977 194.508 55.5 194.844 55.3047C195.18 55.1094 195.449 54.8398 195.652 54.4961C195.855 54.1445 196.004 53.7383 196.098 53.2773C196.199 52.8164 196.25 52.3203 196.25 51.7891V51.543C196.25 51.0273 196.199 50.543 196.098 50.0898C196.004 49.6289 195.852 49.2227 195.641 48.8711C195.438 48.5117 195.168 48.2305 194.832 48.0273C194.496 47.8242 194.09 47.7227 193.613 47.7227C193.137 47.7227 192.73 47.8242 192.395 48.0273C192.066 48.2305 191.797 48.5117 191.586 48.8711C191.383 49.2227 191.234 49.6289 191.141 50.0898C191.047 50.543 191 51.0273 191 51.543ZM205.016 48.0273V58H201.641V45.3203H204.805L205.016 48.0273ZM204.523 51.2148H203.609C203.609 50.2773 203.73 49.4336 203.973 48.6836C204.215 47.9258 204.555 47.2812 204.992 46.75C205.43 46.2109 205.949 45.8008 206.551 45.5195C207.16 45.2305 207.84 45.0859 208.59 45.0859C209.184 45.0859 209.727 45.1719 210.219 45.3438C210.711 45.5156 211.133 45.7891 211.484 46.1641C211.844 46.5391 212.117 47.0352 212.305 47.6523C212.5 48.2695 212.598 49.0234 212.598 49.9141V58H209.199V49.9023C209.199 49.3398 209.121 48.9023 208.965 48.5898C208.809 48.2773 208.578 48.0586 208.273 47.9336C207.977 47.8008 207.609 47.7344 207.172 47.7344C206.719 47.7344 206.324 47.8242 205.988 48.0039C205.66 48.1836 205.387 48.4336 205.168 48.7539C204.957 49.0664 204.797 49.4336 204.688 49.8555C204.578 50.2773 204.523 50.7305 204.523 51.2148Z" fill="#888888"/>
<path d="M109.93 86.0078V118H102.217V86.0078H109.93ZM119.554 86.0078V91.9624H92.813V86.0078H119.554ZM132.012 118.439C130.079 118.439 128.35 118.139 126.827 117.539C125.303 116.923 124.014 116.081 122.959 115.012C121.919 113.942 121.121 112.712 120.564 111.32C120.022 109.929 119.751 108.457 119.751 106.904V106.069C119.751 104.326 119.993 102.714 120.477 101.235C120.96 99.7407 121.678 98.437 122.63 97.3237C123.582 96.2104 124.776 95.3462 126.211 94.731C127.647 94.1011 129.317 93.7861 131.221 93.7861C132.906 93.7861 134.415 94.0571 135.748 94.5991C137.081 95.1411 138.208 95.9175 139.131 96.9282C140.069 97.939 140.779 99.1621 141.263 100.598C141.761 102.033 142.01 103.645 142.01 105.432V108.442H122.586V103.806H134.781V103.234C134.795 102.443 134.656 101.77 134.363 101.213C134.085 100.656 133.675 100.231 133.133 99.9385C132.591 99.6455 131.932 99.499 131.155 99.499C130.35 99.499 129.683 99.6748 129.156 100.026C128.643 100.378 128.24 100.861 127.947 101.477C127.669 102.077 127.471 102.773 127.354 103.564C127.237 104.355 127.178 105.19 127.178 106.069V106.904C127.178 107.783 127.295 108.581 127.53 109.299C127.779 110.017 128.13 110.632 128.584 111.145C129.053 111.643 129.61 112.031 130.254 112.309C130.914 112.587 131.661 112.727 132.496 112.727C133.506 112.727 134.502 112.536 135.484 112.155C136.465 111.774 137.308 111.145 138.011 110.266L141.373 114.265C140.889 114.953 140.201 115.62 139.307 116.264C138.428 116.909 137.374 117.436 136.143 117.846C134.913 118.242 133.536 118.439 132.012 118.439ZM155.062 112.727C155.75 112.727 156.336 112.602 156.819 112.353C157.317 112.089 157.691 111.723 157.94 111.254C158.204 110.771 158.328 110.192 158.313 109.519H165.279C165.293 111.306 164.854 112.873 163.96 114.221C163.082 115.554 161.88 116.594 160.357 117.341C158.848 118.073 157.142 118.439 155.237 118.439C153.377 118.439 151.751 118.139 150.359 117.539C148.968 116.923 147.803 116.074 146.866 114.99C145.943 113.891 145.247 112.609 144.778 111.145C144.324 109.68 144.097 108.09 144.097 106.376V105.871C144.097 104.157 144.324 102.568 144.778 101.103C145.247 99.6235 145.943 98.3418 146.866 97.2578C147.803 96.1592 148.96 95.3096 150.337 94.709C151.729 94.0938 153.348 93.7861 155.193 93.7861C157.171 93.7861 158.914 94.1597 160.423 94.9067C161.946 95.6538 163.14 96.7378 164.004 98.1587C164.869 99.5796 165.293 101.301 165.279 103.322H158.313C158.328 102.604 158.218 101.96 157.984 101.389C157.75 100.817 157.383 100.363 156.885 100.026C156.402 99.6748 155.779 99.499 155.018 99.499C154.256 99.499 153.641 99.6675 153.172 100.004C152.703 100.341 152.344 100.81 152.095 101.411C151.861 101.997 151.7 102.67 151.612 103.432C151.539 104.194 151.502 105.007 151.502 105.871V106.376C151.502 107.255 151.539 108.083 151.612 108.859C151.7 109.621 151.868 110.295 152.117 110.881C152.366 111.452 152.725 111.906 153.194 112.243C153.663 112.565 154.285 112.727 155.062 112.727ZM175.694 84.25V118H168.289V84.25H175.694ZM174.815 105.3L173.079 105.344C173.079 103.674 173.284 102.136 173.694 100.729C174.104 99.3232 174.69 98.1001 175.452 97.0601C176.214 96.02 177.129 95.2144 178.199 94.6431C179.268 94.0718 180.455 93.7861 181.758 93.7861C182.93 93.7861 184 93.9546 184.966 94.2915C185.948 94.6284 186.79 95.1704 187.493 95.9175C188.211 96.6646 188.76 97.6387 189.141 98.8398C189.537 100.041 189.734 101.506 189.734 103.234V118H182.286V103.19C182.286 102.224 182.146 101.477 181.868 100.949C181.604 100.407 181.224 100.034 180.726 99.8286C180.228 99.6089 179.62 99.499 178.902 99.499C178.038 99.499 177.334 99.6455 176.792 99.9385C176.25 100.231 175.833 100.642 175.54 101.169C175.262 101.682 175.071 102.29 174.969 102.993C174.866 103.696 174.815 104.465 174.815 105.3ZM221.88 109.497C221.88 108.999 221.807 108.552 221.661 108.156C221.514 107.746 221.243 107.365 220.848 107.014C220.452 106.662 219.881 106.311 219.134 105.959C218.401 105.593 217.435 105.212 216.233 104.816C214.827 104.348 213.472 103.82 212.168 103.234C210.865 102.634 209.7 101.938 208.675 101.147C207.649 100.341 206.836 99.4038 206.236 98.3345C205.635 97.2505 205.335 95.9907 205.335 94.5552C205.335 93.1782 205.643 91.9404 206.258 90.8418C206.873 89.7285 207.73 88.7837 208.829 88.0073C209.942 87.2163 211.246 86.6157 212.74 86.2056C214.234 85.7808 215.867 85.5684 217.64 85.5684C219.983 85.5684 222.049 85.9785 223.836 86.7988C225.638 87.6045 227.044 88.7544 228.055 90.2485C229.08 91.728 229.593 93.4785 229.593 95.5H221.924C221.924 94.6943 221.756 93.9839 221.419 93.3687C221.097 92.7534 220.606 92.27 219.947 91.9185C219.288 91.5669 218.46 91.3911 217.464 91.3911C216.497 91.3911 215.684 91.5376 215.025 91.8306C214.366 92.1235 213.868 92.519 213.531 93.0171C213.194 93.5005 213.025 94.0352 213.025 94.6211C213.025 95.1045 213.157 95.5439 213.421 95.9395C213.699 96.3203 214.087 96.6792 214.585 97.0161C215.098 97.353 215.713 97.6753 216.431 97.9829C217.164 98.2905 217.984 98.5908 218.892 98.8838C220.591 99.4258 222.1 100.034 223.418 100.708C224.751 101.367 225.872 102.121 226.78 102.971C227.703 103.806 228.399 104.758 228.868 105.827C229.351 106.896 229.593 108.105 229.593 109.453C229.593 110.888 229.314 112.163 228.758 113.276C228.201 114.389 227.403 115.334 226.363 116.11C225.323 116.872 224.078 117.451 222.627 117.846C221.177 118.242 219.559 118.439 217.771 118.439C216.131 118.439 214.512 118.234 212.916 117.824C211.333 117.399 209.898 116.755 208.609 115.891C207.32 115.012 206.287 113.891 205.511 112.529C204.749 111.152 204.368 109.519 204.368 107.629H212.103C212.103 108.566 212.227 109.357 212.476 110.002C212.725 110.646 213.091 111.167 213.575 111.562C214.058 111.943 214.651 112.221 215.354 112.397C216.058 112.558 216.863 112.639 217.771 112.639C218.753 112.639 219.544 112.5 220.145 112.221C220.745 111.928 221.185 111.547 221.463 111.079C221.741 110.595 221.88 110.068 221.88 109.497ZM245.743 94.2256V99.3672H231.417V94.2256H245.743ZM234.427 88.3149H241.832V110.244C241.832 110.874 241.905 111.364 242.051 111.716C242.198 112.053 242.447 112.294 242.798 112.441C243.165 112.573 243.648 112.639 244.249 112.639C244.673 112.639 245.025 112.631 245.303 112.617C245.582 112.587 245.845 112.551 246.094 112.507V117.802C245.464 118.007 244.805 118.161 244.117 118.264C243.428 118.381 242.696 118.439 241.919 118.439C240.337 118.439 238.982 118.19 237.854 117.692C236.741 117.194 235.892 116.411 235.306 115.341C234.72 114.272 234.427 112.88 234.427 111.167V88.3149ZM261.036 112.023V102.224C261.036 101.55 260.94 100.971 260.75 100.488C260.56 100.004 260.259 99.6309 259.849 99.3672C259.439 99.0889 258.89 98.9497 258.201 98.9497C257.645 98.9497 257.168 99.0449 256.773 99.2354C256.377 99.4258 256.077 99.7114 255.872 100.092C255.667 100.473 255.564 100.957 255.564 101.542H248.16C248.16 100.444 248.401 99.4258 248.885 98.4883C249.383 97.5361 250.086 96.7085 250.994 96.0054C251.917 95.3022 253.016 94.7603 254.29 94.3794C255.579 93.9839 257.015 93.7861 258.597 93.7861C260.486 93.7861 262.171 94.1011 263.65 94.731C265.145 95.3608 266.324 96.3057 267.188 97.5654C268.052 98.8105 268.484 100.378 268.484 102.268V112.001C268.484 113.554 268.572 114.733 268.748 115.539C268.924 116.33 269.173 117.026 269.495 117.626V118H262.068C261.717 117.268 261.453 116.374 261.277 115.319C261.116 114.25 261.036 113.151 261.036 112.023ZM261.937 103.476L261.98 107.431H258.707C258.018 107.431 257.432 107.526 256.949 107.717C256.48 107.907 256.099 108.171 255.806 108.508C255.528 108.83 255.323 109.196 255.191 109.606C255.074 110.017 255.015 110.449 255.015 110.903C255.015 111.342 255.118 111.738 255.323 112.089C255.542 112.426 255.835 112.69 256.202 112.88C256.568 113.071 256.978 113.166 257.432 113.166C258.252 113.166 258.948 113.012 259.52 112.705C260.105 112.382 260.552 111.994 260.86 111.54C261.167 111.086 261.321 110.661 261.321 110.266L262.947 113.298C262.654 113.884 262.317 114.477 261.937 115.078C261.57 115.678 261.109 116.235 260.552 116.748C260.01 117.246 259.344 117.656 258.553 117.978C257.762 118.286 256.802 118.439 255.674 118.439C254.209 118.439 252.862 118.139 251.631 117.539C250.416 116.938 249.441 116.103 248.709 115.034C247.977 113.95 247.61 112.705 247.61 111.298C247.61 110.068 247.83 108.969 248.27 108.002C248.724 107.036 249.405 106.215 250.313 105.542C251.221 104.868 252.378 104.355 253.785 104.003C255.191 103.652 256.846 103.476 258.75 103.476H261.937ZM282.635 112.727C283.323 112.727 283.909 112.602 284.393 112.353C284.891 112.089 285.264 111.723 285.513 111.254C285.777 110.771 285.901 110.192 285.887 109.519H292.852C292.867 111.306 292.427 112.873 291.534 114.221C290.655 115.554 289.454 116.594 287.93 117.341C286.421 118.073 284.715 118.439 282.811 118.439C280.95 118.439 279.324 118.139 277.933 117.539C276.541 116.923 275.376 116.074 274.439 114.99C273.516 113.891 272.82 112.609 272.352 111.145C271.897 109.68 271.67 108.09 271.67 106.376V105.871C271.67 104.157 271.897 102.568 272.352 101.103C272.82 99.6235 273.516 98.3418 274.439 97.2578C275.376 96.1592 276.534 95.3096 277.911 94.709C279.302 94.0938 280.921 93.7861 282.767 93.7861C284.744 93.7861 286.487 94.1597 287.996 94.9067C289.52 95.6538 290.713 96.7378 291.578 98.1587C292.442 99.5796 292.867 101.301 292.852 103.322H285.887C285.901 102.604 285.792 101.96 285.557 101.389C285.323 100.817 284.957 100.363 284.458 100.026C283.975 99.6748 283.353 99.499 282.591 99.499C281.829 99.499 281.214 99.6675 280.745 100.004C280.276 100.341 279.917 100.81 279.668 101.411C279.434 101.997 279.273 102.67 279.185 103.432C279.112 104.194 279.075 105.007 279.075 105.871V106.376C279.075 107.255 279.112 108.083 279.185 108.859C279.273 109.621 279.441 110.295 279.69 110.881C279.939 111.452 280.298 111.906 280.767 112.243C281.236 112.565 281.858 112.727 282.635 112.727ZM303.487 84.228V118H296.082V84.228H303.487ZM318.692 94.2256L308.365 106.333L302.959 111.738L299.729 107.036L304.234 101.169L309.815 94.2256H318.692ZM310.76 118L304.41 107.167L309.881 103.278L319.241 118H310.76Z" fill="#424241"/>
<path d="M1363 15C1363 6.71573 1356.28 0 1348 0H1134V167H1348C1356.28 167 1363 160.284 1363 152V15Z" fill="#344E41"/>
<path fill-rule="evenodd" clip-rule="evenodd" d="M1218.5 55C1218.37 55 1218.24 55.0527 1218.15 55.1464C1218.05 55.2402 1218 55.3674 1218 55.5V111.5C1218 111.633 1218.05 111.76 1218.15 111.854C1218.24 111.947 1218.37 112 1218.5 112H1278C1278.13 112 1278.26 111.947 1278.35 111.854C1278.45 111.76 1278.5 111.633 1278.5 111.5V66C1278.5 65.8674 1278.45 65.7402 1278.35 65.6464C1278.26 65.5527 1278.13 65.5 1278 65.5H1248.25C1247.36 65.5 1246.52 65.1045 1245.95 64.4206L1238.09 55H1218.5ZM1213.9 50.9038C1215.12 49.6848 1216.78 49 1218.5 49H1239.5C1240.39 49 1241.23 49.3955 1241.8 50.0794L1249.66 59.5H1278C1279.72 59.5 1281.38 60.1848 1282.6 61.4038C1283.82 62.6228 1284.5 64.2761 1284.5 66V111.5C1284.5 113.224 1283.82 114.877 1282.6 116.096C1281.38 117.315 1279.72 118 1278 118H1218.5C1216.78 118 1215.12 117.315 1213.9 116.096C1212.68 114.877 1212 113.224 1212 111.5V55.5C1212 53.7761 1212.68 52.1228 1213.9 50.9038Z" fill="#D46C4E"/>
<path fill-rule="evenodd" clip-rule="evenodd" d="M1243.72 77.5251C1245.09 78.892 1245.09 81.108 1243.72 82.4749L1237.45 88.75L1243.72 95.0251C1245.09 96.392 1245.09 98.608 1243.72 99.9749C1242.36 101.342 1240.14 101.342 1238.78 99.9749L1230.03 91.2249C1228.66 89.858 1228.66 87.642 1230.03 86.2751L1238.78 77.5251C1240.14 76.1583 1242.36 76.1583 1243.72 77.5251Z" fill="#D46C4E"/>
<path fill-rule="evenodd" clip-rule="evenodd" d="M1252.03 99.9749C1250.66 98.608 1250.66 96.392 1252.03 95.0251L1258.3 88.75L1252.03 82.4749C1250.66 81.108 1250.66 78.892 1252.03 77.5251C1253.39 76.1583 1255.61 76.1583 1256.97 77.5251L1265.72 86.2751C1267.09 87.642 1267.09 89.858 1265.72 91.2249L1256.97 99.9749C1255.61 101.342 1253.39 101.342 1252.03 99.9749Z" fill="#D46C4E"/>
</svg>
