<svg width="1363" height="301" viewBox="0 0 1363 301" fill="none" xmlns="http://www.w3.org/2000/svg">
<rect width="1363" height="301" rx="15" fill="#F0F0F0"/>
<path d="M0 15C0 6.71573 6.71573 0 15 0H37V301H15C6.71573 301 0 294.284 0 286V15Z" fill="#344E41"/>
<path d="M117.217 130.76H126.617C126.491 133.482 125.757 135.881 124.415 137.958C123.072 140.034 121.21 141.655 118.829 142.818C116.465 143.964 113.672 144.537 110.45 144.537C107.836 144.537 105.499 144.098 103.44 143.221C101.399 142.344 99.6628 141.082 98.2305 139.435C96.8161 137.787 95.7329 135.791 94.981 133.446C94.2469 131.1 93.8799 128.46 93.8799 125.523V123.402C93.8799 120.466 94.2648 117.825 95.0347 115.479C95.8224 113.116 96.9325 111.111 98.3647 109.464C99.8149 107.799 101.552 106.528 103.575 105.65C105.598 104.773 107.845 104.334 110.315 104.334C113.717 104.334 116.591 104.943 118.936 106.161C121.281 107.378 123.099 109.052 124.388 111.183C125.677 113.295 126.438 115.703 126.67 118.407H117.271C117.235 116.939 116.985 115.712 116.519 114.728C116.054 113.725 115.319 112.973 114.317 112.472C113.314 111.97 111.98 111.72 110.315 111.72C109.152 111.72 108.14 111.935 107.281 112.364C106.421 112.794 105.705 113.474 105.132 114.405C104.559 115.336 104.13 116.545 103.843 118.031C103.575 119.499 103.44 121.271 103.44 123.348V125.523C103.44 127.6 103.566 129.373 103.816 130.841C104.067 132.309 104.47 133.508 105.025 134.439C105.58 135.37 106.296 136.06 107.173 136.507C108.069 136.937 109.161 137.152 110.45 137.152C111.882 137.152 113.09 136.928 114.075 136.48C115.06 136.015 115.821 135.317 116.358 134.386C116.895 133.437 117.181 132.228 117.217 130.76ZM129.517 129.767V129.203C129.517 127.072 129.821 125.112 130.43 123.321C131.039 121.513 131.934 119.946 133.116 118.622C134.297 117.297 135.757 116.267 137.493 115.533C139.23 114.781 141.235 114.405 143.509 114.405C145.8 114.405 147.815 114.781 149.551 115.533C151.306 116.267 152.774 117.297 153.956 118.622C155.137 119.946 156.032 121.513 156.641 123.321C157.25 125.112 157.554 127.072 157.554 129.203V129.767C157.554 131.879 157.25 133.84 156.641 135.648C156.032 137.438 155.137 139.005 153.956 140.348C152.774 141.673 151.315 142.702 149.578 143.436C147.841 144.17 145.836 144.537 143.562 144.537C141.289 144.537 139.275 144.17 137.52 143.436C135.765 142.702 134.297 141.673 133.116 140.348C131.934 139.005 131.039 137.438 130.43 135.648C129.821 133.84 129.517 131.879 129.517 129.767ZM138.567 129.203V129.767C138.567 130.859 138.648 131.879 138.809 132.828C138.97 133.777 139.239 134.61 139.615 135.326C139.991 136.024 140.501 136.57 141.146 136.964C141.79 137.358 142.596 137.555 143.562 137.555C144.511 137.555 145.299 137.358 145.926 136.964C146.57 136.57 147.081 136.024 147.457 135.326C147.833 134.61 148.101 133.777 148.262 132.828C148.423 131.879 148.504 130.859 148.504 129.767V129.203C148.504 128.146 148.423 127.153 148.262 126.222C148.101 125.273 147.833 124.44 147.457 123.724C147.081 122.99 146.57 122.417 145.926 122.005C145.281 121.594 144.476 121.388 143.509 121.388C142.56 121.388 141.763 121.594 141.119 122.005C140.492 122.417 139.991 122.99 139.615 123.724C139.239 124.44 138.97 125.273 138.809 126.222C138.648 127.153 138.567 128.146 138.567 129.203ZM170.418 135.353L175.789 114.942H181.456L179.441 125.174L174.124 144H169.585L170.418 135.353ZM168.296 114.942L171.626 135.191L172.002 144H166.497L159.622 114.942H168.296ZM186.236 134.762L189.593 114.942H198.267L191.446 144H185.94L186.236 134.762ZM182.1 114.942L187.525 135.299L188.357 144H183.765L178.555 125.228L176.622 114.942H182.1ZM217.576 130.733H207.854V123.456H217.576C218.901 123.456 219.975 123.232 220.799 122.784C221.622 122.337 222.222 121.719 222.598 120.931C222.992 120.125 223.189 119.221 223.189 118.219C223.189 117.145 222.992 116.151 222.598 115.238C222.222 114.325 221.622 113.591 220.799 113.036C219.975 112.463 218.901 112.176 217.576 112.176H211.399V144H201.973V104.898H217.576C220.709 104.898 223.404 105.471 225.66 106.617C227.933 107.763 229.679 109.339 230.896 111.344C232.114 113.331 232.723 115.605 232.723 118.165C232.723 120.689 232.114 122.892 230.896 124.771C229.679 126.651 227.933 128.119 225.66 129.176C223.404 130.214 220.709 130.733 217.576 130.733ZM252.139 136.695V124.718C252.139 123.894 252.023 123.187 251.79 122.596C251.557 122.005 251.19 121.549 250.689 121.227C250.188 120.886 249.516 120.716 248.675 120.716C247.994 120.716 247.413 120.833 246.929 121.065C246.446 121.298 246.079 121.647 245.828 122.113C245.577 122.578 245.452 123.169 245.452 123.885H236.402C236.402 122.542 236.697 121.298 237.288 120.152C237.897 118.989 238.756 117.977 239.866 117.118C240.994 116.258 242.337 115.596 243.895 115.13C245.47 114.647 247.225 114.405 249.158 114.405C251.468 114.405 253.527 114.79 255.335 115.56C257.161 116.33 258.602 117.485 259.659 119.024C260.715 120.546 261.243 122.462 261.243 124.771V136.668C261.243 138.566 261.351 140.007 261.565 140.992C261.78 141.959 262.085 142.809 262.479 143.543V144H253.401C252.972 143.105 252.649 142.013 252.435 140.724C252.238 139.417 252.139 138.074 252.139 136.695ZM253.24 126.249L253.294 131.083H249.292C248.451 131.083 247.735 131.199 247.144 131.432C246.571 131.664 246.106 131.987 245.748 132.398C245.407 132.792 245.157 133.24 244.996 133.741C244.852 134.243 244.781 134.771 244.781 135.326C244.781 135.863 244.906 136.346 245.157 136.776C245.425 137.188 245.783 137.51 246.231 137.743C246.679 137.975 247.18 138.092 247.735 138.092C248.737 138.092 249.588 137.904 250.286 137.528C251.002 137.134 251.548 136.66 251.924 136.104C252.3 135.549 252.488 135.03 252.488 134.547L254.476 138.253C254.118 138.969 253.706 139.694 253.24 140.428C252.793 141.162 252.229 141.843 251.548 142.469C250.886 143.078 250.071 143.579 249.104 143.973C248.138 144.349 246.965 144.537 245.586 144.537C243.796 144.537 242.149 144.17 240.645 143.436C239.159 142.702 237.968 141.681 237.073 140.375C236.178 139.05 235.73 137.528 235.73 135.809C235.73 134.305 235.999 132.962 236.536 131.781C237.091 130.599 237.924 129.597 239.034 128.773C240.144 127.949 241.558 127.323 243.277 126.893C244.996 126.463 247.019 126.249 249.346 126.249H253.24ZM275.154 121.146V144H266.104V114.942H274.59L275.154 121.146ZM274.08 128.478L271.958 128.531C271.958 126.311 272.227 124.333 272.764 122.596C273.301 120.842 274.062 119.356 275.047 118.138C276.032 116.921 277.204 115.999 278.565 115.372C279.944 114.728 281.474 114.405 283.157 114.405C284.5 114.405 285.726 114.602 286.836 114.996C287.964 115.39 288.931 116.026 289.737 116.903C290.56 117.78 291.187 118.944 291.617 120.394C292.064 121.826 292.288 123.599 292.288 125.711V144H283.184V125.685C283.184 124.521 283.023 123.635 282.701 123.026C282.378 122.399 281.913 121.97 281.304 121.737C280.695 121.504 279.952 121.388 279.075 121.388C278.144 121.388 277.356 121.567 276.712 121.925C276.067 122.283 275.548 122.784 275.154 123.429C274.778 124.055 274.501 124.798 274.322 125.658C274.161 126.517 274.08 127.457 274.08 128.478ZM306.871 114.942V144H297.793V114.942H306.871ZM297.256 107.45C297.256 106.161 297.722 105.104 298.653 104.281C299.584 103.457 300.792 103.045 302.278 103.045C303.764 103.045 304.973 103.457 305.904 104.281C306.835 105.104 307.3 106.161 307.3 107.45C307.3 108.739 306.835 109.795 305.904 110.619C304.973 111.442 303.764 111.854 302.278 111.854C300.792 111.854 299.584 111.442 298.653 110.619C297.722 109.795 297.256 108.739 297.256 107.45ZM311.329 129.767V129.203C311.329 127.072 311.633 125.112 312.242 123.321C312.85 121.513 313.746 119.946 314.927 118.622C316.109 117.297 317.568 116.267 319.305 115.533C321.041 114.781 323.047 114.405 325.32 114.405C327.612 114.405 329.626 114.781 331.363 115.533C333.117 116.267 334.585 117.297 335.767 118.622C336.949 119.946 337.844 121.513 338.453 123.321C339.061 125.112 339.366 127.072 339.366 129.203V129.767C339.366 131.879 339.061 133.84 338.453 135.648C337.844 137.438 336.949 139.005 335.767 140.348C334.585 141.673 333.126 142.702 331.39 143.436C329.653 144.17 327.648 144.537 325.374 144.537C323.1 144.537 321.086 144.17 319.332 143.436C317.577 142.702 316.109 141.673 314.927 140.348C313.746 139.005 312.85 137.438 312.242 135.648C311.633 133.84 311.329 131.879 311.329 129.767ZM320.379 129.203V129.767C320.379 130.859 320.459 131.879 320.621 132.828C320.782 133.777 321.05 134.61 321.426 135.326C321.802 136.024 322.312 136.57 322.957 136.964C323.602 137.358 324.407 137.555 325.374 137.555C326.323 137.555 327.111 137.358 327.737 136.964C328.382 136.57 328.892 136.024 329.268 135.326C329.644 134.61 329.913 133.777 330.074 132.828C330.235 131.879 330.315 130.859 330.315 129.767V129.203C330.315 128.146 330.235 127.153 330.074 126.222C329.913 125.273 329.644 124.44 329.268 123.724C328.892 122.99 328.382 122.417 327.737 122.005C327.093 121.594 326.287 121.388 325.32 121.388C324.371 121.388 323.575 121.594 322.93 122.005C322.304 122.417 321.802 122.99 321.426 123.724C321.05 124.44 320.782 125.273 320.621 126.222C320.459 127.153 320.379 128.146 320.379 129.203ZM352.283 121.146V144H343.233V114.942H351.719L352.283 121.146ZM351.209 128.478L349.087 128.531C349.087 126.311 349.356 124.333 349.893 122.596C350.43 120.842 351.191 119.356 352.176 118.138C353.16 116.921 354.333 115.999 355.694 115.372C357.072 114.728 358.603 114.405 360.286 114.405C361.629 114.405 362.855 114.602 363.965 114.996C365.093 115.39 366.06 116.026 366.866 116.903C367.689 117.78 368.316 118.944 368.746 120.394C369.193 121.826 369.417 123.599 369.417 125.711V144H360.313V125.685C360.313 124.521 360.152 123.635 359.83 123.026C359.507 122.399 359.042 121.97 358.433 121.737C357.824 121.504 357.081 121.388 356.204 121.388C355.273 121.388 354.485 121.567 353.841 121.925C353.196 122.283 352.677 122.784 352.283 123.429C351.907 124.055 351.63 124.798 351.451 125.658C351.29 126.517 351.209 127.457 351.209 128.478Z" fill="black"/>
<path d="M104.339 59.3726L97.5713 80H92.1196L101.365 55.1172H104.834L104.339 59.3726ZM109.961 80L103.177 59.3726L102.63 55.1172H106.133L115.43 80H109.961ZM109.654 70.7373V74.7534H96.5117V70.7373H109.654ZM122.625 53.75V80H117.686V53.75H122.625ZM131.888 61.5088V80H126.949V61.5088H131.888ZM126.641 56.6895C126.641 55.9717 126.892 55.3792 127.393 54.9121C127.894 54.445 128.567 54.2114 129.41 54.2114C130.241 54.2114 130.908 54.445 131.409 54.9121C131.922 55.3792 132.178 55.9717 132.178 56.6895C132.178 57.4072 131.922 57.9997 131.409 58.4668C130.908 58.9339 130.241 59.1675 129.41 59.1675C128.567 59.1675 127.894 58.9339 127.393 58.4668C126.892 57.9997 126.641 57.4072 126.641 56.6895ZM165.418 66.9775V68.1567C165.418 70.048 165.162 71.7456 164.649 73.2495C164.136 74.7534 163.413 76.0352 162.479 77.0947C161.544 78.1429 160.428 78.9461 159.129 79.5044C157.841 80.0627 156.412 80.3418 154.839 80.3418C153.278 80.3418 151.849 80.0627 150.55 79.5044C149.262 78.9461 148.146 78.1429 147.2 77.0947C146.255 76.0352 145.52 74.7534 144.996 73.2495C144.483 71.7456 144.227 70.048 144.227 68.1567V66.9775C144.227 65.0749 144.483 63.3773 144.996 61.8848C145.508 60.3809 146.232 59.0991 147.166 58.0396C148.112 56.98 149.228 56.1711 150.516 55.6128C151.814 55.0545 153.244 54.7754 154.805 54.7754C156.377 54.7754 157.807 55.0545 159.095 55.6128C160.394 56.1711 161.51 56.98 162.444 58.0396C163.39 59.0991 164.119 60.3809 164.632 61.8848C165.156 63.3773 165.418 65.0749 165.418 66.9775ZM160.24 68.1567V66.9434C160.24 65.6217 160.12 64.4596 159.881 63.457C159.642 62.4544 159.288 61.6113 158.821 60.9277C158.354 60.2441 157.785 59.7314 157.112 59.3896C156.44 59.0365 155.671 58.8599 154.805 58.8599C153.939 58.8599 153.17 59.0365 152.498 59.3896C151.837 59.7314 151.273 60.2441 150.806 60.9277C150.35 61.6113 150.003 62.4544 149.764 63.457C149.524 64.4596 149.405 65.6217 149.405 66.9434V68.1567C149.405 69.467 149.524 70.6291 149.764 71.6431C150.003 72.6457 150.356 73.4945 150.823 74.1895C151.29 74.873 151.86 75.3914 152.532 75.7446C153.204 76.0978 153.973 76.2744 154.839 76.2744C155.705 76.2744 156.474 76.0978 157.146 75.7446C157.819 75.3914 158.383 74.873 158.838 74.1895C159.294 73.4945 159.642 72.6457 159.881 71.6431C160.12 70.6291 160.24 69.467 160.24 68.1567ZM173.997 53.75V80H169.058V53.75H173.997ZM183.26 53.75V80H178.321V53.75H183.26ZM192.522 61.5088V80H187.583V61.5088H192.522ZM187.276 56.6895C187.276 55.9717 187.527 55.3792 188.028 54.9121C188.529 54.445 189.201 54.2114 190.044 54.2114C190.876 54.2114 191.543 54.445 192.044 54.9121C192.557 55.3792 192.813 55.9717 192.813 56.6895C192.813 57.4072 192.557 57.9997 192.044 58.4668C191.543 58.9339 190.876 59.1675 190.044 59.1675C189.201 59.1675 188.529 58.9339 188.028 58.4668C187.527 57.9997 187.276 57.4072 187.276 56.6895ZM205.101 80.3418C203.665 80.3418 202.378 80.1139 201.238 79.6582C200.099 79.1911 199.131 78.5474 198.333 77.7271C197.547 76.9067 196.943 75.9554 196.521 74.873C196.1 73.7793 195.889 72.6172 195.889 71.3867V70.7031C195.889 69.3018 196.089 68.02 196.487 66.8579C196.886 65.6958 197.456 64.6875 198.196 63.833C198.948 62.9785 199.86 62.3234 200.931 61.8677C202.002 61.4006 203.209 61.167 204.554 61.167C205.864 61.167 207.026 61.3835 208.04 61.8164C209.054 62.2493 209.903 62.8646 210.586 63.6621C211.281 64.4596 211.806 65.4167 212.159 66.5332C212.512 67.6383 212.688 68.8688 212.688 70.2246V72.2754H197.991V68.9941H207.852V68.6182C207.852 67.9346 207.727 67.325 207.476 66.7896C207.237 66.2427 206.872 65.8097 206.382 65.4907C205.892 65.1717 205.266 65.0122 204.502 65.0122C203.853 65.0122 203.295 65.1546 202.828 65.4395C202.361 65.7243 201.979 66.123 201.683 66.6357C201.398 67.1484 201.181 67.7523 201.033 68.4473C200.896 69.1309 200.828 69.8828 200.828 70.7031V71.3867C200.828 72.1273 200.931 72.8109 201.136 73.4375C201.352 74.0641 201.654 74.6053 202.042 75.061C202.44 75.5168 202.919 75.87 203.477 76.1206C204.047 76.3713 204.69 76.4966 205.408 76.4966C206.297 76.4966 207.123 76.3257 207.886 75.9839C208.661 75.6307 209.327 75.1009 209.886 74.3945L212.278 76.9922C211.891 77.5505 211.361 78.0859 210.689 78.5986C210.028 79.1113 209.231 79.5329 208.296 79.8633C207.362 80.1823 206.297 80.3418 205.101 80.3418ZM220.413 53.7329V80H215.491V53.7329H220.413ZM232.068 61.5088L224.036 70.6689L219.729 75.0269L217.935 71.4722L221.353 67.1313L226.155 61.5088H232.068ZM226.958 80L221.49 71.4551L224.891 68.4814L232.632 80H226.958Z" fill="#888888"/>
<rect x="92" y="181" width="1179" height="80" rx="13.3333" fill="#CCCCCC"/>
<rect x="107" y="196.333" width="208" height="49.3333" rx="4.66667" fill="#888888" stroke="#888888" stroke-width="4"/>
<path d="M171.823 213.167H177.792C178.958 213.167 179.972 213.34 180.833 213.687C181.694 214.035 182.358 214.549 182.823 215.229C183.295 215.91 183.531 216.75 183.531 217.75C183.531 218.618 183.396 219.344 183.125 219.927C182.854 220.51 182.476 220.993 181.99 221.375C181.51 221.75 180.951 222.059 180.312 222.302L179.115 222.979H174.104L174.083 220.156H177.792C178.257 220.156 178.642 220.073 178.948 219.906C179.253 219.74 179.483 219.503 179.635 219.198C179.795 218.885 179.875 218.514 179.875 218.083C179.875 217.646 179.795 217.271 179.635 216.958C179.476 216.646 179.24 216.406 178.927 216.24C178.622 216.073 178.243 215.99 177.792 215.99H175.479V228.333H171.823V213.167ZM180.125 228.333L176.771 221.625L180.646 221.604L184.042 228.177V228.333H180.125ZM191.031 228.542C190.115 228.542 189.295 228.399 188.573 228.115C187.851 227.823 187.24 227.424 186.74 226.917C186.247 226.41 185.868 225.826 185.604 225.167C185.347 224.507 185.219 223.809 185.219 223.073V222.677C185.219 221.851 185.333 221.087 185.562 220.385C185.792 219.677 186.132 219.059 186.583 218.531C187.035 218.003 187.601 217.594 188.281 217.302C188.962 217.003 189.753 216.854 190.656 216.854C191.455 216.854 192.17 216.983 192.802 217.24C193.434 217.497 193.969 217.865 194.406 218.344C194.851 218.823 195.187 219.403 195.417 220.083C195.653 220.764 195.771 221.528 195.771 222.375V223.802H186.562V221.604H192.344V221.333C192.351 220.958 192.285 220.639 192.146 220.375C192.014 220.111 191.819 219.91 191.562 219.771C191.306 219.632 190.993 219.562 190.625 219.562C190.243 219.562 189.927 219.646 189.677 219.812C189.434 219.979 189.243 220.208 189.104 220.5C188.972 220.785 188.878 221.115 188.823 221.49C188.767 221.865 188.74 222.26 188.74 222.677V223.073C188.74 223.49 188.795 223.868 188.906 224.208C189.024 224.549 189.191 224.84 189.406 225.083C189.628 225.319 189.892 225.503 190.198 225.635C190.51 225.767 190.865 225.833 191.26 225.833C191.74 225.833 192.212 225.743 192.677 225.562C193.142 225.382 193.542 225.083 193.875 224.667L195.469 226.562C195.24 226.889 194.913 227.205 194.49 227.51C194.073 227.816 193.573 228.066 192.99 228.26C192.406 228.448 191.753 228.542 191.031 228.542ZM203.052 225.5V220.854C203.052 220.535 203.007 220.26 202.917 220.031C202.826 219.802 202.684 219.625 202.49 219.5C202.295 219.368 202.035 219.302 201.708 219.302C201.444 219.302 201.219 219.347 201.031 219.437C200.844 219.528 200.701 219.663 200.604 219.844C200.507 220.024 200.458 220.253 200.458 220.531H196.948C196.948 220.01 197.062 219.528 197.292 219.083C197.528 218.632 197.861 218.24 198.292 217.906C198.729 217.573 199.25 217.316 199.854 217.135C200.465 216.948 201.146 216.854 201.896 216.854C202.792 216.854 203.59 217.003 204.292 217.302C205 217.601 205.559 218.049 205.969 218.646C206.378 219.236 206.583 219.979 206.583 220.875V225.49C206.583 226.226 206.625 226.785 206.708 227.167C206.792 227.542 206.91 227.872 207.062 228.156V228.333H203.542C203.375 227.986 203.25 227.562 203.167 227.062C203.09 226.556 203.052 226.035 203.052 225.5ZM203.479 221.448L203.5 223.323H201.948C201.622 223.323 201.344 223.368 201.115 223.458C200.892 223.549 200.712 223.674 200.573 223.833C200.441 223.986 200.344 224.16 200.281 224.354C200.226 224.549 200.198 224.753 200.198 224.969C200.198 225.177 200.247 225.365 200.344 225.531C200.448 225.691 200.587 225.816 200.76 225.906C200.934 225.997 201.128 226.042 201.344 226.042C201.733 226.042 202.062 225.969 202.333 225.823C202.611 225.67 202.823 225.486 202.969 225.271C203.115 225.056 203.187 224.854 203.187 224.667L203.958 226.104C203.819 226.382 203.66 226.663 203.479 226.948C203.306 227.233 203.087 227.497 202.823 227.74C202.566 227.976 202.25 228.17 201.875 228.323C201.5 228.469 201.045 228.542 200.51 228.542C199.816 228.542 199.177 228.399 198.594 228.115C198.017 227.83 197.556 227.434 197.208 226.927C196.861 226.413 196.687 225.823 196.687 225.156C196.687 224.573 196.792 224.052 197 223.594C197.215 223.135 197.538 222.747 197.969 222.427C198.399 222.108 198.948 221.865 199.615 221.698C200.281 221.531 201.066 221.448 201.969 221.448H203.479ZM213.292 225.833C213.618 225.833 213.896 225.774 214.125 225.656C214.361 225.531 214.538 225.358 214.656 225.135C214.781 224.906 214.84 224.632 214.833 224.312H218.135C218.142 225.16 217.934 225.903 217.51 226.542C217.094 227.174 216.524 227.667 215.802 228.021C215.087 228.368 214.278 228.542 213.375 228.542C212.493 228.542 211.722 228.399 211.062 228.115C210.403 227.823 209.851 227.42 209.406 226.906C208.969 226.385 208.639 225.778 208.417 225.083C208.201 224.389 208.094 223.635 208.094 222.823V222.583C208.094 221.771 208.201 221.017 208.417 220.323C208.639 219.622 208.969 219.014 209.406 218.5C209.851 217.979 210.399 217.576 211.052 217.292C211.712 217 212.479 216.854 213.354 216.854C214.292 216.854 215.118 217.031 215.833 217.385C216.556 217.74 217.122 218.253 217.531 218.927C217.941 219.601 218.142 220.417 218.135 221.375H214.833C214.84 221.035 214.788 220.729 214.677 220.458C214.566 220.187 214.392 219.972 214.156 219.812C213.927 219.646 213.632 219.562 213.271 219.562C212.91 219.562 212.618 219.642 212.396 219.802C212.174 219.962 212.003 220.184 211.885 220.469C211.774 220.747 211.698 221.066 211.656 221.427C211.622 221.788 211.604 222.174 211.604 222.583V222.823C211.604 223.24 211.622 223.632 211.656 224C211.698 224.361 211.778 224.681 211.896 224.958C212.014 225.229 212.184 225.444 212.406 225.604C212.628 225.757 212.924 225.833 213.292 225.833ZM225.573 217.062V219.5H218.781V217.062H225.573ZM220.208 214.26H223.719V224.656C223.719 224.955 223.753 225.187 223.823 225.354C223.892 225.514 224.01 225.628 224.177 225.698C224.351 225.76 224.58 225.792 224.865 225.792C225.066 225.792 225.233 225.788 225.365 225.781C225.497 225.767 225.622 225.75 225.74 225.729V228.24C225.441 228.337 225.128 228.41 224.802 228.458C224.476 228.514 224.128 228.542 223.76 228.542C223.01 228.542 222.368 228.424 221.833 228.187C221.306 227.951 220.903 227.58 220.625 227.073C220.347 226.566 220.208 225.906 220.208 225.094V214.26ZM233.167 223.573V213.167H236.812V223.573C236.812 224.587 236.58 225.465 236.115 226.208C235.656 226.951 235.031 227.528 234.24 227.937C233.455 228.34 232.573 228.542 231.594 228.542C230.58 228.542 229.677 228.372 228.885 228.031C228.101 227.691 227.483 227.167 227.031 226.458C226.587 225.75 226.365 224.847 226.365 223.75H230.031C230.031 224.264 230.09 224.667 230.208 224.958C230.326 225.243 230.5 225.444 230.729 225.562C230.965 225.674 231.253 225.729 231.594 225.729C231.927 225.729 232.208 225.646 232.437 225.479C232.674 225.306 232.854 225.059 232.979 224.74C233.104 224.413 233.167 224.024 233.167 223.573ZM246.948 224.302C246.948 224.066 246.913 223.854 246.844 223.667C246.774 223.472 246.646 223.292 246.458 223.125C246.271 222.958 246 222.792 245.646 222.625C245.299 222.451 244.84 222.271 244.271 222.083C243.604 221.861 242.962 221.611 242.344 221.333C241.726 221.049 241.174 220.719 240.687 220.344C240.201 219.962 239.816 219.517 239.531 219.01C239.247 218.497 239.104 217.899 239.104 217.219C239.104 216.566 239.25 215.979 239.542 215.458C239.833 214.931 240.24 214.483 240.76 214.115C241.288 213.74 241.906 213.455 242.615 213.26C243.323 213.059 244.097 212.958 244.937 212.958C246.049 212.958 247.028 213.153 247.875 213.542C248.729 213.924 249.396 214.469 249.875 215.177C250.361 215.878 250.604 216.708 250.604 217.667H246.969C246.969 217.285 246.889 216.948 246.729 216.656C246.576 216.365 246.344 216.135 246.031 215.969C245.719 215.802 245.326 215.719 244.854 215.719C244.396 215.719 244.01 215.788 243.698 215.927C243.385 216.066 243.149 216.253 242.99 216.49C242.83 216.719 242.75 216.972 242.75 217.25C242.75 217.479 242.812 217.687 242.937 217.875C243.069 218.056 243.253 218.226 243.49 218.385C243.733 218.545 244.024 218.698 244.365 218.844C244.712 218.99 245.101 219.132 245.531 219.271C246.337 219.528 247.052 219.816 247.677 220.135C248.309 220.448 248.84 220.806 249.271 221.208C249.708 221.604 250.038 222.056 250.26 222.562C250.49 223.069 250.604 223.642 250.604 224.281C250.604 224.962 250.472 225.566 250.208 226.094C249.944 226.622 249.566 227.069 249.073 227.437C248.58 227.799 247.99 228.073 247.302 228.26C246.615 228.448 245.847 228.542 245 228.542C244.222 228.542 243.455 228.444 242.698 228.25C241.948 228.049 241.267 227.743 240.656 227.333C240.045 226.917 239.556 226.385 239.187 225.74C238.826 225.087 238.646 224.312 238.646 223.417H242.312C242.312 223.861 242.372 224.236 242.49 224.542C242.608 224.847 242.781 225.094 243.01 225.281C243.24 225.462 243.521 225.594 243.854 225.677C244.187 225.753 244.569 225.792 245 225.792C245.465 225.792 245.84 225.726 246.125 225.594C246.41 225.455 246.618 225.274 246.75 225.052C246.882 224.823 246.948 224.573 246.948 224.302Z" fill="white"/>
<rect x="339" y="196.333" width="208" height="49.3333" rx="4.66667" fill="#888888" stroke="#888888" stroke-width="4"/>
<path d="M415.458 228.333H412.094L412.115 225.521H415.458C416.153 225.521 416.74 225.354 417.219 225.021C417.705 224.687 418.073 224.191 418.323 223.531C418.58 222.865 418.708 222.045 418.708 221.073V220.417C418.708 219.687 418.635 219.049 418.49 218.5C418.351 217.944 418.142 217.483 417.865 217.115C417.587 216.74 417.24 216.458 416.823 216.271C416.413 216.083 415.941 215.99 415.406 215.99H412.031V213.167H415.406C416.434 213.167 417.375 213.344 418.229 213.698C419.09 214.045 419.833 214.545 420.458 215.198C421.09 215.844 421.576 216.611 421.917 217.5C422.264 218.382 422.438 219.361 422.438 220.437V221.073C422.438 222.142 422.264 223.122 421.917 224.01C421.576 224.899 421.094 225.667 420.469 226.312C419.844 226.958 419.104 227.458 418.25 227.812C417.403 228.16 416.472 228.333 415.458 228.333ZM414.188 213.167V228.333H410.531V213.167H414.188ZM424.438 217.062H427.958V228.698C427.958 229.601 427.785 230.361 427.438 230.979C427.09 231.604 426.594 232.076 425.948 232.396C425.302 232.722 424.531 232.885 423.635 232.885C423.337 232.885 423.062 232.872 422.812 232.844C422.556 232.823 422.274 232.778 421.969 232.708V230.052C422.149 230.08 422.316 230.101 422.469 230.115C422.622 230.135 422.788 230.146 422.969 230.146C423.288 230.146 423.556 230.094 423.771 229.99C423.986 229.885 424.149 229.726 424.26 229.51C424.378 229.295 424.438 229.024 424.438 228.698V217.062ZM424.177 214.156C424.177 213.656 424.358 213.247 424.719 212.927C425.08 212.608 425.549 212.448 426.125 212.448C426.701 212.448 427.17 212.608 427.531 212.927C427.892 213.247 428.073 213.656 428.073 214.156C428.073 214.656 427.892 215.066 427.531 215.385C427.17 215.705 426.701 215.865 426.125 215.865C425.549 215.865 425.08 215.705 424.719 215.385C424.358 215.066 424.177 214.656 424.177 214.156ZM435.802 225.5V220.854C435.802 220.535 435.757 220.26 435.667 220.031C435.576 219.802 435.434 219.625 435.24 219.5C435.045 219.368 434.785 219.302 434.458 219.302C434.194 219.302 433.969 219.347 433.781 219.437C433.594 219.528 433.451 219.663 433.354 219.844C433.257 220.024 433.208 220.253 433.208 220.531H429.698C429.698 220.01 429.813 219.528 430.042 219.083C430.278 218.632 430.611 218.24 431.042 217.906C431.479 217.573 432 217.316 432.604 217.135C433.215 216.948 433.896 216.854 434.646 216.854C435.542 216.854 436.34 217.003 437.042 217.302C437.75 217.601 438.309 218.049 438.719 218.646C439.128 219.236 439.333 219.979 439.333 220.875V225.49C439.333 226.226 439.375 226.785 439.458 227.167C439.542 227.542 439.66 227.872 439.813 228.156V228.333H436.292C436.125 227.986 436 227.562 435.917 227.062C435.84 226.556 435.802 226.035 435.802 225.5ZM436.229 221.448L436.25 223.323H434.698C434.372 223.323 434.094 223.368 433.865 223.458C433.642 223.549 433.462 223.674 433.323 223.833C433.191 223.986 433.094 224.16 433.031 224.354C432.976 224.549 432.948 224.753 432.948 224.969C432.948 225.177 432.997 225.365 433.094 225.531C433.198 225.691 433.337 225.816 433.51 225.906C433.684 225.997 433.878 226.042 434.094 226.042C434.483 226.042 434.813 225.969 435.083 225.823C435.361 225.67 435.573 225.486 435.719 225.271C435.865 225.056 435.938 224.854 435.938 224.667L436.708 226.104C436.569 226.382 436.41 226.663 436.229 226.948C436.056 227.233 435.837 227.497 435.573 227.74C435.316 227.976 435 228.17 434.625 228.323C434.25 228.469 433.795 228.542 433.26 228.542C432.566 228.542 431.927 228.399 431.344 228.115C430.767 227.83 430.306 227.434 429.958 226.927C429.611 226.413 429.438 225.823 429.438 225.156C429.438 224.573 429.542 224.052 429.75 223.594C429.965 223.135 430.288 222.747 430.719 222.427C431.149 222.108 431.698 221.865 432.365 221.698C433.031 221.531 433.816 221.448 434.719 221.448H436.229ZM444.729 219.469V228.333H441.219V217.062H444.51L444.729 219.469ZM444.313 222.312L443.49 222.333C443.49 221.472 443.594 220.705 443.802 220.031C444.01 219.351 444.306 218.774 444.688 218.302C445.069 217.83 445.524 217.472 446.052 217.229C446.587 216.979 447.181 216.854 447.833 216.854C448.354 216.854 448.83 216.931 449.26 217.083C449.698 217.236 450.073 217.483 450.385 217.823C450.705 218.163 450.948 218.615 451.115 219.177C451.288 219.733 451.375 220.42 451.375 221.24V228.333H447.844V221.229C447.844 220.778 447.781 220.434 447.656 220.198C447.531 219.955 447.351 219.788 447.115 219.698C446.878 219.608 446.59 219.562 446.25 219.562C445.889 219.562 445.583 219.632 445.333 219.771C445.083 219.91 444.882 220.104 444.729 220.354C444.583 220.597 444.476 220.885 444.406 221.219C444.344 221.552 444.313 221.917 444.313 222.312ZM460.406 217.062H463.594V227.896C463.594 228.937 463.354 229.819 462.875 230.542C462.396 231.271 461.726 231.823 460.865 232.198C460.01 232.58 459.01 232.771 457.865 232.771C457.358 232.771 456.84 232.705 456.313 232.573C455.785 232.448 455.292 232.26 454.833 232.01C454.375 231.76 453.99 231.451 453.677 231.083L455.146 229.021C455.431 229.34 455.788 229.611 456.219 229.833C456.649 230.062 457.156 230.177 457.74 230.177C458.247 230.177 458.67 230.087 459.01 229.906C459.358 229.726 459.622 229.462 459.802 229.115C459.983 228.774 460.073 228.361 460.073 227.875V219.729L460.406 217.062ZM452.917 222.833V222.615C452.917 221.76 453.021 220.983 453.229 220.281C453.444 219.573 453.75 218.965 454.146 218.458C454.549 217.944 455.035 217.549 455.604 217.271C456.174 216.993 456.816 216.854 457.531 216.854C458.302 216.854 458.934 217.003 459.427 217.302C459.927 217.594 460.326 218.003 460.625 218.531C460.931 219.059 461.167 219.677 461.333 220.385C461.507 221.087 461.653 221.844 461.771 222.656V222.917C461.653 223.681 461.49 224.403 461.281 225.083C461.08 225.757 460.816 226.354 460.49 226.875C460.163 227.396 459.753 227.806 459.26 228.104C458.774 228.396 458.191 228.542 457.51 228.542C456.802 228.542 456.163 228.399 455.594 228.115C455.031 227.83 454.549 227.431 454.146 226.917C453.75 226.403 453.444 225.799 453.229 225.104C453.021 224.41 452.917 223.653 452.917 222.833ZM456.427 222.615V222.833C456.427 223.257 456.465 223.649 456.542 224.01C456.625 224.372 456.75 224.691 456.917 224.969C457.083 225.24 457.288 225.451 457.531 225.604C457.781 225.757 458.073 225.833 458.406 225.833C458.913 225.833 459.323 225.726 459.635 225.51C459.948 225.295 460.174 224.99 460.313 224.594C460.451 224.198 460.51 223.733 460.49 223.198V222.375C460.503 221.917 460.472 221.514 460.396 221.167C460.319 220.812 460.198 220.517 460.031 220.281C459.872 220.045 459.656 219.868 459.385 219.75C459.122 219.625 458.802 219.562 458.427 219.562C458.101 219.562 457.813 219.639 457.563 219.792C457.313 219.944 457.104 220.16 456.938 220.437C456.771 220.708 456.642 221.031 456.552 221.406C456.469 221.774 456.427 222.177 456.427 222.615ZM465.177 222.812V222.594C465.177 221.767 465.295 221.007 465.531 220.312C465.767 219.611 466.115 219.003 466.573 218.49C467.031 217.976 467.597 217.576 468.271 217.292C468.944 217 469.722 216.854 470.604 216.854C471.493 216.854 472.274 217 472.948 217.292C473.628 217.576 474.198 217.976 474.656 218.49C475.115 219.003 475.462 219.611 475.698 220.312C475.934 221.007 476.052 221.767 476.052 222.594V222.812C476.052 223.632 475.934 224.392 475.698 225.094C475.462 225.788 475.115 226.396 474.656 226.917C474.198 227.431 473.632 227.83 472.958 228.115C472.285 228.399 471.507 228.542 470.625 228.542C469.743 228.542 468.962 228.399 468.281 228.115C467.601 227.83 467.031 227.431 466.573 226.917C466.115 226.396 465.767 225.788 465.531 225.094C465.295 224.392 465.177 223.632 465.177 222.812ZM468.688 222.594V222.812C468.688 223.236 468.719 223.632 468.781 224C468.844 224.368 468.948 224.691 469.094 224.969C469.24 225.24 469.438 225.451 469.688 225.604C469.938 225.757 470.25 225.833 470.625 225.833C470.993 225.833 471.299 225.757 471.542 225.604C471.792 225.451 471.99 225.24 472.135 224.969C472.281 224.691 472.385 224.368 472.448 224C472.51 223.632 472.542 223.236 472.542 222.812V222.594C472.542 222.184 472.51 221.799 472.448 221.437C472.385 221.069 472.281 220.747 472.135 220.469C471.99 220.184 471.792 219.962 471.542 219.802C471.292 219.642 470.979 219.562 470.604 219.562C470.236 219.562 469.927 219.642 469.677 219.802C469.434 219.962 469.24 220.184 469.094 220.469C468.948 220.747 468.844 221.069 468.781 221.437C468.719 221.799 468.688 222.184 468.688 222.594Z" fill="white"/>
<rect x="571" y="196.333" width="208" height="49.3333" rx="4.66667" fill="#888888" stroke="#888888" stroke-width="4"/>
<path d="M614.833 213.167H620.802C621.969 213.167 622.983 213.34 623.844 213.687C624.705 214.035 625.368 214.549 625.833 215.229C626.306 215.91 626.542 216.75 626.542 217.75C626.542 218.618 626.406 219.344 626.135 219.927C625.865 220.51 625.486 220.993 625 221.375C624.521 221.75 623.962 222.059 623.323 222.302L622.125 222.979H617.115L617.094 220.156H620.802C621.267 220.156 621.653 220.073 621.958 219.906C622.264 219.74 622.493 219.503 622.646 219.198C622.806 218.885 622.885 218.514 622.885 218.083C622.885 217.646 622.806 217.271 622.646 216.958C622.486 216.646 622.25 216.406 621.937 216.24C621.632 216.073 621.253 215.99 620.802 215.99H618.49V228.333H614.833V213.167ZM623.135 228.333L619.781 221.625L623.656 221.604L627.052 228.177V228.333H623.135ZM634.042 228.542C633.125 228.542 632.306 228.399 631.583 228.115C630.861 227.823 630.25 227.424 629.75 226.917C629.257 226.41 628.878 225.826 628.615 225.167C628.358 224.507 628.229 223.809 628.229 223.073V222.677C628.229 221.851 628.344 221.087 628.573 220.385C628.802 219.677 629.142 219.059 629.594 218.531C630.045 218.003 630.611 217.594 631.292 217.302C631.972 217.003 632.764 216.854 633.667 216.854C634.465 216.854 635.181 216.983 635.813 217.24C636.444 217.497 636.979 217.865 637.417 218.344C637.861 218.823 638.198 219.403 638.427 220.083C638.663 220.764 638.781 221.528 638.781 222.375V223.802H629.573V221.604H635.354V221.333C635.361 220.958 635.295 220.639 635.156 220.375C635.024 220.111 634.83 219.91 634.573 219.771C634.316 219.632 634.003 219.562 633.635 219.562C633.253 219.562 632.938 219.646 632.688 219.812C632.444 219.979 632.253 220.208 632.115 220.5C631.983 220.785 631.889 221.115 631.833 221.49C631.778 221.865 631.75 222.26 631.75 222.677V223.073C631.75 223.49 631.806 223.868 631.917 224.208C632.035 224.549 632.201 224.84 632.417 225.083C632.639 225.319 632.903 225.503 633.208 225.635C633.521 225.767 633.875 225.833 634.271 225.833C634.75 225.833 635.222 225.743 635.688 225.562C636.153 225.382 636.552 225.083 636.885 224.667L638.479 226.562C638.25 226.889 637.924 227.205 637.5 227.51C637.083 227.816 636.583 228.066 636 228.26C635.417 228.448 634.764 228.542 634.042 228.542ZM646.063 225.5V220.854C646.063 220.535 646.017 220.26 645.927 220.031C645.837 219.802 645.694 219.625 645.5 219.5C645.306 219.368 645.045 219.302 644.719 219.302C644.455 219.302 644.229 219.347 644.042 219.437C643.854 219.528 643.712 219.663 643.615 219.844C643.517 220.024 643.469 220.253 643.469 220.531H639.958C639.958 220.01 640.073 219.528 640.302 219.083C640.538 218.632 640.872 218.24 641.302 217.906C641.74 217.573 642.26 217.316 642.865 217.135C643.476 216.948 644.156 216.854 644.906 216.854C645.802 216.854 646.601 217.003 647.302 217.302C648.01 217.601 648.569 218.049 648.979 218.646C649.389 219.236 649.594 219.979 649.594 220.875V225.49C649.594 226.226 649.635 226.785 649.719 227.167C649.802 227.542 649.92 227.872 650.073 228.156V228.333H646.552C646.385 227.986 646.26 227.562 646.177 227.062C646.101 226.556 646.063 226.035 646.063 225.5ZM646.49 221.448L646.51 223.323H644.958C644.632 223.323 644.354 223.368 644.125 223.458C643.903 223.549 643.722 223.674 643.583 223.833C643.451 223.986 643.354 224.16 643.292 224.354C643.236 224.549 643.208 224.753 643.208 224.969C643.208 225.177 643.257 225.365 643.354 225.531C643.458 225.691 643.597 225.816 643.771 225.906C643.944 225.997 644.139 226.042 644.354 226.042C644.743 226.042 645.073 225.969 645.344 225.823C645.622 225.67 645.833 225.486 645.979 225.271C646.125 225.056 646.198 224.854 646.198 224.667L646.969 226.104C646.83 226.382 646.67 226.663 646.49 226.948C646.316 227.233 646.097 227.497 645.833 227.74C645.576 227.976 645.26 228.17 644.885 228.323C644.51 228.469 644.056 228.542 643.521 228.542C642.826 228.542 642.188 228.399 641.604 228.115C641.028 227.83 640.566 227.434 640.219 226.927C639.872 226.413 639.698 225.823 639.698 225.156C639.698 224.573 639.802 224.052 640.01 223.594C640.226 223.135 640.549 222.747 640.979 222.427C641.41 222.108 641.958 221.865 642.625 221.698C643.292 221.531 644.076 221.448 644.979 221.448H646.49ZM656.302 225.833C656.628 225.833 656.906 225.774 657.135 225.656C657.372 225.531 657.549 225.358 657.667 225.135C657.792 224.906 657.851 224.632 657.844 224.312H661.146C661.153 225.16 660.944 225.903 660.521 226.542C660.104 227.174 659.535 227.667 658.812 228.021C658.097 228.368 657.288 228.542 656.385 228.542C655.503 228.542 654.733 228.399 654.073 228.115C653.413 227.823 652.861 227.42 652.417 226.906C651.979 226.385 651.649 225.778 651.427 225.083C651.212 224.389 651.104 223.635 651.104 222.823V222.583C651.104 221.771 651.212 221.017 651.427 220.323C651.649 219.622 651.979 219.014 652.417 218.5C652.861 217.979 653.41 217.576 654.062 217.292C654.722 217 655.49 216.854 656.365 216.854C657.302 216.854 658.128 217.031 658.844 217.385C659.566 217.74 660.132 218.253 660.542 218.927C660.951 219.601 661.153 220.417 661.146 221.375H657.844C657.851 221.035 657.799 220.729 657.687 220.458C657.576 220.187 657.403 219.972 657.167 219.812C656.937 219.646 656.642 219.562 656.281 219.562C655.92 219.562 655.628 219.642 655.406 219.802C655.184 219.962 655.014 220.184 654.896 220.469C654.785 220.747 654.708 221.066 654.667 221.427C654.632 221.788 654.615 222.174 654.615 222.583V222.823C654.615 223.24 654.632 223.632 654.667 224C654.708 224.361 654.788 224.681 654.906 224.958C655.024 225.229 655.194 225.444 655.417 225.604C655.639 225.757 655.934 225.833 656.302 225.833ZM668.583 217.062V219.5H661.792V217.062H668.583ZM663.219 214.26H666.729V224.656C666.729 224.955 666.764 225.187 666.833 225.354C666.903 225.514 667.021 225.628 667.188 225.698C667.361 225.76 667.59 225.792 667.875 225.792C668.076 225.792 668.243 225.788 668.375 225.781C668.507 225.767 668.632 225.75 668.75 225.729V228.24C668.451 228.337 668.139 228.41 667.813 228.458C667.486 228.514 667.139 228.542 666.771 228.542C666.021 228.542 665.378 228.424 664.844 228.187C664.316 227.951 663.913 227.58 663.635 227.073C663.358 226.566 663.219 225.906 663.219 225.094V214.26ZM688.125 213.167V228.333H684.479L679.115 218.896V228.333H675.458V213.167H679.115L684.479 222.604V213.167H688.125ZM696.125 225.5V220.854C696.125 220.535 696.08 220.26 695.99 220.031C695.899 219.802 695.757 219.625 695.563 219.5C695.368 219.368 695.108 219.302 694.781 219.302C694.517 219.302 694.292 219.347 694.104 219.437C693.917 219.528 693.774 219.663 693.677 219.844C693.58 220.024 693.531 220.253 693.531 220.531H690.021C690.021 220.01 690.135 219.528 690.365 219.083C690.601 218.632 690.934 218.24 691.365 217.906C691.802 217.573 692.323 217.316 692.927 217.135C693.538 216.948 694.219 216.854 694.969 216.854C695.865 216.854 696.663 217.003 697.365 217.302C698.073 217.601 698.632 218.049 699.042 218.646C699.451 219.236 699.656 219.979 699.656 220.875V225.49C699.656 226.226 699.698 226.785 699.781 227.167C699.865 227.542 699.983 227.872 700.135 228.156V228.333H696.615C696.448 227.986 696.323 227.562 696.24 227.062C696.163 226.556 696.125 226.035 696.125 225.5ZM696.552 221.448L696.573 223.323H695.021C694.694 223.323 694.417 223.368 694.188 223.458C693.965 223.549 693.785 223.674 693.646 223.833C693.514 223.986 693.417 224.16 693.354 224.354C693.299 224.549 693.271 224.753 693.271 224.969C693.271 225.177 693.319 225.365 693.417 225.531C693.521 225.691 693.66 225.816 693.833 225.906C694.007 225.997 694.201 226.042 694.417 226.042C694.806 226.042 695.135 225.969 695.406 225.823C695.684 225.67 695.896 225.486 696.042 225.271C696.188 225.056 696.26 224.854 696.26 224.667L697.031 226.104C696.892 226.382 696.733 226.663 696.552 226.948C696.378 227.233 696.16 227.497 695.896 227.74C695.639 227.976 695.323 228.17 694.948 228.323C694.573 228.469 694.118 228.542 693.583 228.542C692.889 228.542 692.25 228.399 691.667 228.115C691.09 227.83 690.628 227.434 690.281 226.927C689.934 226.413 689.76 225.823 689.76 225.156C689.76 224.573 689.865 224.052 690.073 223.594C690.288 223.135 690.611 222.747 691.042 222.427C691.472 222.108 692.021 221.865 692.688 221.698C693.354 221.531 694.139 221.448 695.042 221.448H696.552ZM707.542 217.062V219.5H700.75V217.062H707.542ZM702.177 214.26H705.687V224.656C705.687 224.955 705.722 225.187 705.792 225.354C705.861 225.514 705.979 225.628 706.146 225.698C706.319 225.76 706.549 225.792 706.833 225.792C707.035 225.792 707.201 225.788 707.333 225.781C707.465 225.767 707.59 225.75 707.708 225.729V228.24C707.41 228.337 707.097 228.41 706.771 228.458C706.444 228.514 706.097 228.542 705.729 228.542C704.979 228.542 704.337 228.424 703.802 228.187C703.274 227.951 702.872 227.58 702.594 227.073C702.316 226.566 702.177 225.906 702.177 225.094V214.26ZM712.646 217.062V228.333H709.125V217.062H712.646ZM708.917 214.156C708.917 213.656 709.097 213.247 709.458 212.927C709.819 212.608 710.288 212.448 710.865 212.448C711.441 212.448 711.91 212.608 712.271 212.927C712.632 213.247 712.813 213.656 712.813 214.156C712.813 214.656 712.632 215.066 712.271 215.385C711.91 215.705 711.441 215.865 710.865 215.865C710.288 215.865 709.819 215.705 709.458 215.385C709.097 215.066 708.917 214.656 708.917 214.156ZM718.875 225.927L721.094 217.062H724.792L721.104 228.333H718.917L718.875 225.927ZM717.563 217.062L719.75 225.927L719.729 228.333H717.531L713.854 217.062H717.563ZM731.146 228.542C730.229 228.542 729.41 228.399 728.688 228.115C727.965 227.823 727.354 227.424 726.854 226.917C726.361 226.41 725.983 225.826 725.719 225.167C725.462 224.507 725.333 223.809 725.333 223.073V222.677C725.333 221.851 725.448 221.087 725.677 220.385C725.906 219.677 726.247 219.059 726.698 218.531C727.149 218.003 727.715 217.594 728.396 217.302C729.076 217.003 729.868 216.854 730.771 216.854C731.569 216.854 732.285 216.983 732.917 217.24C733.549 217.497 734.083 217.865 734.521 218.344C734.965 218.823 735.302 219.403 735.531 220.083C735.767 220.764 735.885 221.528 735.885 222.375V223.802H726.677V221.604H732.458V221.333C732.465 220.958 732.399 220.639 732.26 220.375C732.128 220.111 731.934 219.91 731.677 219.771C731.42 219.632 731.108 219.562 730.74 219.562C730.358 219.562 730.042 219.646 729.792 219.812C729.549 219.979 729.358 220.208 729.219 220.5C729.087 220.785 728.993 221.115 728.938 221.49C728.882 221.865 728.854 222.26 728.854 222.677V223.073C728.854 223.49 728.91 223.868 729.021 224.208C729.139 224.549 729.306 224.84 729.521 225.083C729.743 225.319 730.007 225.503 730.313 225.635C730.625 225.767 730.979 225.833 731.375 225.833C731.854 225.833 732.326 225.743 732.792 225.562C733.257 225.382 733.656 225.083 733.99 224.667L735.583 226.562C735.354 226.889 735.028 227.205 734.604 227.51C734.188 227.816 733.688 228.066 733.104 228.26C732.521 228.448 731.868 228.542 731.146 228.542Z" fill="white"/>
<rect x="803" y="196.333" width="208" height="49.3333" rx="4.66667" fill="#888888" stroke="#888888" stroke-width="4"/>
<path d="M884.083 228.333H880.719L880.74 225.521H884.083C884.778 225.521 885.365 225.354 885.844 225.021C886.33 224.687 886.698 224.191 886.948 223.531C887.205 222.865 887.333 222.045 887.333 221.073V220.417C887.333 219.687 887.26 219.049 887.115 218.5C886.976 217.944 886.767 217.483 886.49 217.115C886.212 216.74 885.865 216.458 885.448 216.271C885.038 216.083 884.566 215.99 884.031 215.99H880.656V213.167H884.031C885.059 213.167 886 213.344 886.854 213.698C887.715 214.045 888.458 214.545 889.083 215.198C889.715 215.844 890.201 216.611 890.542 217.5C890.889 218.382 891.063 219.361 891.063 220.437V221.073C891.063 222.142 890.889 223.122 890.542 224.01C890.201 224.899 889.719 225.667 889.094 226.312C888.469 226.958 887.729 227.458 886.875 227.812C886.028 228.16 885.097 228.333 884.083 228.333ZM882.813 213.167V228.333H879.156V213.167H882.813ZM895.948 219.281H897.656C898.094 219.281 898.451 219.205 898.729 219.052C899.014 218.892 899.226 218.67 899.365 218.385C899.503 218.094 899.573 217.75 899.573 217.354C899.573 217.049 899.507 216.767 899.375 216.51C899.25 216.253 899.056 216.049 898.792 215.896C898.528 215.736 898.191 215.656 897.781 215.656C897.503 215.656 897.233 215.715 896.969 215.833C896.705 215.944 896.486 216.104 896.313 216.312C896.146 216.521 896.063 216.774 896.063 217.073H892.542C892.542 216.212 892.778 215.476 893.25 214.865C893.729 214.247 894.358 213.774 895.135 213.448C895.92 213.115 896.764 212.948 897.667 212.948C898.743 212.948 899.688 213.115 900.5 213.448C901.313 213.774 901.944 214.26 902.396 214.906C902.854 215.545 903.083 216.337 903.083 217.281C903.083 217.802 902.962 218.292 902.719 218.75C902.476 219.208 902.135 219.611 901.698 219.958C901.26 220.306 900.747 220.58 900.156 220.781C899.573 220.976 898.934 221.073 898.24 221.073H895.948V219.281ZM895.948 221.896V220.146H898.24C898.997 220.146 899.688 220.233 900.313 220.406C900.938 220.573 901.476 220.823 901.927 221.156C902.378 221.49 902.726 221.903 902.969 222.396C903.212 222.882 903.333 223.441 903.333 224.073C903.333 224.781 903.191 225.413 902.906 225.969C902.622 226.524 902.222 226.993 901.708 227.375C901.194 227.757 900.594 228.049 899.906 228.25C899.219 228.444 898.472 228.542 897.667 228.542C897.035 228.542 896.403 228.458 895.771 228.292C895.139 228.118 894.563 227.854 894.042 227.5C893.521 227.139 893.101 226.681 892.781 226.125C892.469 225.562 892.313 224.892 892.313 224.115H895.833C895.833 224.434 895.92 224.726 896.094 224.99C896.274 225.247 896.514 225.451 896.813 225.604C897.111 225.757 897.434 225.833 897.781 225.833C898.212 225.833 898.576 225.753 898.875 225.594C899.181 225.427 899.413 225.205 899.573 224.927C899.733 224.649 899.813 224.34 899.813 224C899.813 223.486 899.726 223.076 899.552 222.771C899.385 222.465 899.139 222.243 898.813 222.104C898.493 221.965 898.108 221.896 897.656 221.896H895.948ZM905.406 226.687C905.406 226.187 905.587 225.771 905.948 225.437C906.309 225.097 906.774 224.927 907.344 224.927C907.92 224.927 908.385 225.097 908.74 225.437C909.101 225.771 909.281 226.187 909.281 226.687C909.281 227.187 909.101 227.608 908.74 227.948C908.385 228.281 907.92 228.448 907.344 228.448C906.774 228.448 906.309 228.281 905.948 227.948C905.587 227.608 905.406 227.187 905.406 226.687ZM917.833 223.573V213.167H921.479V223.573C921.479 224.587 921.247 225.465 920.781 226.208C920.323 226.951 919.698 227.528 918.906 227.937C918.122 228.34 917.24 228.542 916.26 228.542C915.247 228.542 914.344 228.372 913.552 228.031C912.767 227.691 912.149 227.167 911.698 226.458C911.253 225.75 911.031 224.847 911.031 223.75H914.698C914.698 224.264 914.757 224.667 914.875 224.958C914.993 225.243 915.167 225.444 915.396 225.562C915.632 225.674 915.92 225.729 916.26 225.729C916.594 225.729 916.875 225.646 917.104 225.479C917.34 225.306 917.521 225.059 917.646 224.74C917.771 224.413 917.833 224.024 917.833 223.573ZM931.615 224.302C931.615 224.066 931.58 223.854 931.51 223.667C931.441 223.472 931.312 223.292 931.125 223.125C930.937 222.958 930.667 222.792 930.312 222.625C929.965 222.451 929.507 222.271 928.937 222.083C928.271 221.861 927.628 221.611 927.01 221.333C926.392 221.049 925.84 220.719 925.354 220.344C924.868 219.962 924.483 219.517 924.198 219.01C923.913 218.497 923.771 217.899 923.771 217.219C923.771 216.566 923.917 215.979 924.208 215.458C924.5 214.931 924.906 214.483 925.427 214.115C925.955 213.74 926.573 213.455 927.281 213.26C927.99 213.059 928.764 212.958 929.604 212.958C930.715 212.958 931.694 213.153 932.542 213.542C933.396 213.924 934.062 214.469 934.542 215.177C935.028 215.878 935.271 216.708 935.271 217.667H931.635C931.635 217.285 931.556 216.948 931.396 216.656C931.243 216.365 931.01 216.135 930.698 215.969C930.385 215.802 929.993 215.719 929.521 215.719C929.062 215.719 928.677 215.788 928.365 215.927C928.052 216.066 927.816 216.253 927.656 216.49C927.497 216.719 927.417 216.972 927.417 217.25C927.417 217.479 927.479 217.687 927.604 217.875C927.736 218.056 927.92 218.226 928.156 218.385C928.399 218.545 928.691 218.698 929.031 218.844C929.378 218.99 929.767 219.132 930.198 219.271C931.003 219.528 931.719 219.816 932.344 220.135C932.976 220.448 933.507 220.806 933.937 221.208C934.375 221.604 934.705 222.056 934.927 222.562C935.156 223.069 935.271 223.642 935.271 224.281C935.271 224.962 935.139 225.566 934.875 226.094C934.611 226.622 934.233 227.069 933.74 227.437C933.247 227.799 932.656 228.073 931.969 228.26C931.281 228.448 930.514 228.542 929.667 228.542C928.889 228.542 928.122 228.444 927.365 228.25C926.615 228.049 925.934 227.743 925.323 227.333C924.712 226.917 924.222 226.385 923.854 225.74C923.493 225.087 923.312 224.312 923.312 223.417H926.979C926.979 223.861 927.038 224.236 927.156 224.542C927.274 224.847 927.448 225.094 927.677 225.281C927.906 225.462 928.187 225.594 928.521 225.677C928.854 225.753 929.236 225.792 929.667 225.792C930.132 225.792 930.507 225.726 930.792 225.594C931.076 225.455 931.285 225.274 931.417 225.052C931.549 224.823 931.615 224.573 931.615 224.302Z" fill="white"/>
<rect x="105" y="194.333" width="1153" height="53.3333" stroke="black"/>
</svg>
