<svg width="1363" height="167" viewBox="0 0 1363 167" fill="none" xmlns="http://www.w3.org/2000/svg">
<rect width="1363" height="167" rx="15" fill="#F0F0F0"/>
<path d="M0 15C0 6.71573 6.71573 0 15 0H37V167H15C6.71573 167 0 160.284 0 152V15Z" fill="#344E41"/>
<path d="M103.414 52.3398H106.918C106.848 53.4883 106.531 54.5078 105.969 55.3984C105.414 56.2891 104.637 56.9844 103.637 57.4844C102.645 57.9844 101.449 58.2344 100.051 58.2344C98.957 58.2344 97.9766 58.0469 97.1094 57.6719C96.2422 57.2891 95.5 56.7422 94.8828 56.0312C94.2734 55.3203 93.8086 54.4609 93.4883 53.4531C93.168 52.4453 93.0078 51.3164 93.0078 50.0664V48.8828C93.0078 47.6328 93.1719 46.5039 93.5 45.4961C93.8359 44.4805 94.3125 43.6172 94.9297 42.9062C95.5547 42.1953 96.3008 41.6484 97.168 41.2656C98.0352 40.8828 99.0039 40.6914 100.074 40.6914C101.496 40.6914 102.695 40.9492 103.672 41.4648C104.656 41.9805 105.418 42.6914 105.957 43.5977C106.504 44.5039 106.832 45.5352 106.941 46.6914H103.426C103.387 46.0039 103.25 45.4219 103.016 44.9453C102.781 44.4609 102.426 44.0977 101.949 43.8555C101.48 43.6055 100.855 43.4805 100.074 43.4805C99.4883 43.4805 98.9766 43.5898 98.5391 43.8086C98.1016 44.0273 97.7344 44.3594 97.4375 44.8047C97.1406 45.25 96.918 45.8125 96.7695 46.4922C96.6289 47.1641 96.5586 47.9531 96.5586 48.8594V50.0664C96.5586 50.9492 96.625 51.7266 96.7578 52.3984C96.8906 53.0625 97.0938 53.625 97.3672 54.0859C97.6484 54.5391 98.0078 54.8828 98.4453 55.1172C98.8906 55.3438 99.4258 55.457 100.051 55.457C100.785 55.457 101.391 55.3398 101.867 55.1055C102.344 54.8711 102.707 54.5234 102.957 54.0625C103.215 53.6016 103.367 53.0273 103.414 52.3398ZM108.477 51.7891V51.543C108.477 50.6133 108.609 49.7578 108.875 48.9766C109.141 48.1875 109.527 47.5039 110.035 46.9258C110.543 46.3477 111.168 45.8984 111.91 45.5781C112.652 45.25 113.504 45.0859 114.465 45.0859C115.426 45.0859 116.281 45.25 117.031 45.5781C117.781 45.8984 118.41 46.3477 118.918 46.9258C119.434 47.5039 119.824 48.1875 120.09 48.9766C120.355 49.7578 120.488 50.6133 120.488 51.543V51.7891C120.488 52.7109 120.355 53.5664 120.09 54.3555C119.824 55.1367 119.434 55.8203 118.918 56.4062C118.41 56.9844 117.785 57.4336 117.043 57.7539C116.301 58.0742 115.449 58.2344 114.488 58.2344C113.527 58.2344 112.672 58.0742 111.922 57.7539C111.18 57.4336 110.551 56.9844 110.035 56.4062C109.527 55.8203 109.141 55.1367 108.875 54.3555C108.609 53.5664 108.477 52.7109 108.477 51.7891ZM111.852 51.543V51.7891C111.852 52.3203 111.898 52.8164 111.992 53.2773C112.086 53.7383 112.234 54.1445 112.438 54.4961C112.648 54.8398 112.922 55.1094 113.258 55.3047C113.594 55.5 114.004 55.5977 114.488 55.5977C114.957 55.5977 115.359 55.5 115.695 55.3047C116.031 55.1094 116.301 54.8398 116.504 54.4961C116.707 54.1445 116.855 53.7383 116.949 53.2773C117.051 52.8164 117.102 52.3203 117.102 51.7891V51.543C117.102 51.0273 117.051 50.543 116.949 50.0898C116.855 49.6289 116.703 49.2227 116.492 48.8711C116.289 48.5117 116.02 48.2305 115.684 48.0273C115.348 47.8242 114.941 47.7227 114.465 47.7227C113.988 47.7227 113.582 47.8242 113.246 48.0273C112.918 48.2305 112.648 48.5117 112.438 48.8711C112.234 49.2227 112.086 49.6289 111.992 50.0898C111.898 50.543 111.852 51.0273 111.852 51.543ZM126.184 54.7188L128.82 45.3203H130.965L130.273 49.0117L127.637 58H125.844L126.184 54.7188ZM124.848 45.3203L126.734 54.707L126.91 58H124.801L121.59 45.3203H124.848ZM133.379 54.5547L135.219 45.3203H138.488L135.277 58H133.18L133.379 54.5547ZM131.258 45.3203L133.883 54.6484L134.246 58H132.441L129.805 49.0234L129.137 45.3203H131.258ZM147.043 51.918H142.695V49.1758H147.043C147.715 49.1758 148.262 49.0664 148.684 48.8477C149.105 48.6211 149.414 48.3086 149.609 47.9102C149.805 47.5117 149.902 47.0625 149.902 46.5625C149.902 46.0547 149.805 45.582 149.609 45.1445C149.414 44.707 149.105 44.3555 148.684 44.0898C148.262 43.8242 147.715 43.6914 147.043 43.6914H143.914V58H140.398V40.9375H147.043C148.379 40.9375 149.523 41.1797 150.477 41.6641C151.438 42.1406 152.172 42.8008 152.68 43.6445C153.188 44.4883 153.441 45.4531 153.441 46.5391C153.441 47.6406 153.188 48.5938 152.68 49.3984C152.172 50.2031 151.438 50.8242 150.477 51.2617C149.523 51.6992 148.379 51.918 147.043 51.918ZM162.359 55.1406V49.4922C162.359 49.0859 162.293 48.7383 162.16 48.4492C162.027 48.1523 161.82 47.9219 161.539 47.7578C161.266 47.5938 160.91 47.5117 160.473 47.5117C160.098 47.5117 159.773 47.5781 159.5 47.7109C159.227 47.8359 159.016 48.0195 158.867 48.2617C158.719 48.4961 158.645 48.7734 158.645 49.0938H155.27C155.27 48.5547 155.395 48.043 155.645 47.5586C155.895 47.0742 156.258 46.6484 156.734 46.2812C157.211 45.9062 157.777 45.6133 158.434 45.4023C159.098 45.1914 159.84 45.0859 160.66 45.0859C161.645 45.0859 162.52 45.25 163.285 45.5781C164.051 45.9062 164.652 46.3984 165.09 47.0547C165.535 47.7109 165.758 48.5312 165.758 49.5156V54.9414C165.758 55.6367 165.801 56.207 165.887 56.6523C165.973 57.0898 166.098 57.4727 166.262 57.8008V58H162.852C162.688 57.6562 162.562 57.2266 162.477 56.7109C162.398 56.1875 162.359 55.6641 162.359 55.1406ZM162.805 50.2773L162.828 52.1875H160.941C160.496 52.1875 160.109 52.2383 159.781 52.3398C159.453 52.4414 159.184 52.5859 158.973 52.7734C158.762 52.9531 158.605 53.1641 158.504 53.4062C158.41 53.6484 158.363 53.9141 158.363 54.2031C158.363 54.4922 158.43 54.7539 158.562 54.9883C158.695 55.2148 158.887 55.3945 159.137 55.5273C159.387 55.6523 159.68 55.7148 160.016 55.7148C160.523 55.7148 160.965 55.6133 161.34 55.4102C161.715 55.207 162.004 54.957 162.207 54.6602C162.418 54.3633 162.527 54.082 162.535 53.8164L163.426 55.2461C163.301 55.5664 163.129 55.8984 162.91 56.2422C162.699 56.5859 162.43 56.9102 162.102 57.2148C161.773 57.5117 161.379 57.7578 160.918 57.9531C160.457 58.1406 159.91 58.2344 159.277 58.2344C158.473 58.2344 157.742 58.0742 157.086 57.7539C156.438 57.4258 155.922 56.9766 155.539 56.4062C155.164 55.8281 154.977 55.1719 154.977 54.4375C154.977 53.7734 155.102 53.1836 155.352 52.668C155.602 52.1523 155.969 51.7188 156.453 51.3672C156.945 51.0078 157.559 50.7383 158.293 50.5586C159.027 50.3711 159.879 50.2773 160.848 50.2773H162.805ZM171.664 48.0273V58H168.289V45.3203H171.453L171.664 48.0273ZM171.172 51.2148H170.258C170.258 50.2773 170.379 49.4336 170.621 48.6836C170.863 47.9258 171.203 47.2812 171.641 46.75C172.078 46.2109 172.598 45.8008 173.199 45.5195C173.809 45.2305 174.488 45.0859 175.238 45.0859C175.832 45.0859 176.375 45.1719 176.867 45.3438C177.359 45.5156 177.781 45.7891 178.133 46.1641C178.492 46.5391 178.766 47.0352 178.953 47.6523C179.148 48.2695 179.246 49.0234 179.246 49.9141V58H175.848V49.9023C175.848 49.3398 175.77 48.9023 175.613 48.5898C175.457 48.2773 175.227 48.0586 174.922 47.9336C174.625 47.8008 174.258 47.7344 173.82 47.7344C173.367 47.7344 172.973 47.8242 172.637 48.0039C172.309 48.1836 172.035 48.4336 171.816 48.7539C171.605 49.0664 171.445 49.4336 171.336 49.8555C171.227 50.2773 171.172 50.7305 171.172 51.2148ZM185.375 45.3203V58H181.988V45.3203H185.375ZM181.777 42.0156C181.777 41.5234 181.949 41.1172 182.293 40.7969C182.637 40.4766 183.098 40.3164 183.676 40.3164C184.246 40.3164 184.703 40.4766 185.047 40.7969C185.398 41.1172 185.574 41.5234 185.574 42.0156C185.574 42.5078 185.398 42.9141 185.047 43.2344C184.703 43.5547 184.246 43.7148 183.676 43.7148C183.098 43.7148 182.637 43.5547 182.293 43.2344C181.949 42.9141 181.777 42.5078 181.777 42.0156ZM187.625 51.7891V51.543C187.625 50.6133 187.758 49.7578 188.023 48.9766C188.289 48.1875 188.676 47.5039 189.184 46.9258C189.691 46.3477 190.316 45.8984 191.059 45.5781C191.801 45.25 192.652 45.0859 193.613 45.0859C194.574 45.0859 195.43 45.25 196.18 45.5781C196.93 45.8984 197.559 46.3477 198.066 46.9258C198.582 47.5039 198.973 48.1875 199.238 48.9766C199.504 49.7578 199.637 50.6133 199.637 51.543V51.7891C199.637 52.7109 199.504 53.5664 199.238 54.3555C198.973 55.1367 198.582 55.8203 198.066 56.4062C197.559 56.9844 196.934 57.4336 196.191 57.7539C195.449 58.0742 194.598 58.2344 193.637 58.2344C192.676 58.2344 191.82 58.0742 191.07 57.7539C190.328 57.4336 189.699 56.9844 189.184 56.4062C188.676 55.8203 188.289 55.1367 188.023 54.3555C187.758 53.5664 187.625 52.7109 187.625 51.7891ZM191 51.543V51.7891C191 52.3203 191.047 52.8164 191.141 53.2773C191.234 53.7383 191.383 54.1445 191.586 54.4961C191.797 54.8398 192.07 55.1094 192.406 55.3047C192.742 55.5 193.152 55.5977 193.637 55.5977C194.105 55.5977 194.508 55.5 194.844 55.3047C195.18 55.1094 195.449 54.8398 195.652 54.4961C195.855 54.1445 196.004 53.7383 196.098 53.2773C196.199 52.8164 196.25 52.3203 196.25 51.7891V51.543C196.25 51.0273 196.199 50.543 196.098 50.0898C196.004 49.6289 195.852 49.2227 195.641 48.8711C195.438 48.5117 195.168 48.2305 194.832 48.0273C194.496 47.8242 194.09 47.7227 193.613 47.7227C193.137 47.7227 192.73 47.8242 192.395 48.0273C192.066 48.2305 191.797 48.5117 191.586 48.8711C191.383 49.2227 191.234 49.6289 191.141 50.0898C191.047 50.543 191 51.0273 191 51.543ZM205.016 48.0273V58H201.641V45.3203H204.805L205.016 48.0273ZM204.523 51.2148H203.609C203.609 50.2773 203.73 49.4336 203.973 48.6836C204.215 47.9258 204.555 47.2812 204.992 46.75C205.43 46.2109 205.949 45.8008 206.551 45.5195C207.16 45.2305 207.84 45.0859 208.59 45.0859C209.184 45.0859 209.727 45.1719 210.219 45.3438C210.711 45.5156 211.133 45.7891 211.484 46.1641C211.844 46.5391 212.117 47.0352 212.305 47.6523C212.5 48.2695 212.598 49.0234 212.598 49.9141V58H209.199V49.9023C209.199 49.3398 209.121 48.9023 208.965 48.5898C208.809 48.2773 208.578 48.0586 208.273 47.9336C207.977 47.8008 207.609 47.7344 207.172 47.7344C206.719 47.7344 206.324 47.8242 205.988 48.0039C205.66 48.1836 205.387 48.4336 205.168 48.7539C204.957 49.0664 204.797 49.4336 204.688 49.8555C204.578 50.2773 204.523 50.7305 204.523 51.2148Z" fill="#888888"/>
<path d="M101.822 115.1L108.194 86.0078H111.995L114.061 88.4907L107.271 118H103.074L101.822 115.1ZM100.13 86.0078L105.513 115.319L104.129 118H99.2729L92.4834 86.0078H100.13ZM117.554 115.166L122.894 86.0078H130.518L123.729 118H118.895L117.554 115.166ZM114.742 86.0078L121.268 115.275L119.949 118H115.752L108.809 88.4468L110.962 86.0078H114.742ZM141.021 94.2256V118H133.594V94.2256H141.021ZM133.155 88.0952C133.155 87.0405 133.536 86.1763 134.297 85.5024C135.059 84.8286 136.048 84.4917 137.264 84.4917C138.479 84.4917 139.468 84.8286 140.23 85.5024C140.992 86.1763 141.373 87.0405 141.373 88.0952C141.373 89.1499 140.992 90.0142 140.23 90.688C139.468 91.3618 138.479 91.6987 137.264 91.6987C136.048 91.6987 135.059 91.3618 134.297 90.688C133.536 90.0142 133.155 89.1499 133.155 88.0952ZM153.062 100.114V118H145.657V94.2256H152.579L153.062 100.114ZM160.093 94.0498L159.961 100.927C159.668 100.898 159.273 100.861 158.775 100.817C158.277 100.773 157.859 100.751 157.522 100.751C156.658 100.751 155.911 100.854 155.281 101.059C154.666 101.25 154.153 101.542 153.743 101.938C153.348 102.319 153.055 102.802 152.864 103.388C152.688 103.974 152.608 104.655 152.623 105.432L151.282 104.553C151.282 102.956 151.436 101.506 151.744 100.202C152.066 98.8838 152.52 97.7485 153.106 96.7964C153.692 95.8296 154.402 95.0898 155.237 94.5771C156.072 94.0498 157.01 93.7861 158.05 93.7861C158.416 93.7861 158.775 93.8081 159.126 93.8521C159.493 93.896 159.815 93.9619 160.093 94.0498ZM173.716 118.439C171.783 118.439 170.054 118.139 168.531 117.539C167.007 116.923 165.718 116.081 164.664 115.012C163.624 113.942 162.825 112.712 162.269 111.32C161.727 109.929 161.456 108.457 161.456 106.904V106.069C161.456 104.326 161.697 102.714 162.181 101.235C162.664 99.7407 163.382 98.437 164.334 97.3237C165.286 96.2104 166.48 95.3462 167.916 94.731C169.351 94.1011 171.021 93.7861 172.925 93.7861C174.61 93.7861 176.119 94.0571 177.452 94.5991C178.785 95.1411 179.913 95.9175 180.835 96.9282C181.773 97.939 182.483 99.1621 182.967 100.598C183.465 102.033 183.714 103.645 183.714 105.432V108.442H164.29V103.806H176.485V103.234C176.5 102.443 176.36 101.77 176.067 101.213C175.789 100.656 175.379 100.231 174.837 99.9385C174.295 99.6455 173.636 99.499 172.859 99.499C172.054 99.499 171.387 99.6748 170.86 100.026C170.347 100.378 169.944 100.861 169.651 101.477C169.373 102.077 169.175 102.773 169.058 103.564C168.941 104.355 168.882 105.19 168.882 106.069V106.904C168.882 107.783 169 108.581 169.234 109.299C169.483 110.017 169.834 110.632 170.289 111.145C170.757 111.643 171.314 112.031 171.958 112.309C172.618 112.587 173.365 112.727 174.2 112.727C175.21 112.727 176.207 112.536 177.188 112.155C178.169 111.774 179.012 111.145 179.715 110.266L183.077 114.265C182.593 114.953 181.905 115.62 181.011 116.264C180.132 116.909 179.078 117.436 177.847 117.846C176.617 118.242 175.24 118.439 173.716 118.439ZM195.799 118H188.35V92.292C188.35 90.4463 188.724 88.8936 189.471 87.6338C190.218 86.374 191.272 85.4219 192.635 84.7773C193.997 84.1182 195.608 83.7886 197.469 83.7886C198.113 83.7886 198.721 83.8325 199.292 83.9204C199.864 84.0083 200.42 84.1182 200.962 84.25L200.984 89.6992C200.721 89.626 200.45 89.5747 200.171 89.5454C199.893 89.5161 199.549 89.5015 199.139 89.5015C198.421 89.5015 197.813 89.6113 197.315 89.8311C196.817 90.0361 196.436 90.3511 196.172 90.7759C195.923 91.186 195.799 91.6914 195.799 92.292V118ZM200.413 94.2256V99.3672H184.922V94.2256H200.413ZM210.542 100.114V118H203.138V94.2256H210.059L210.542 100.114ZM217.574 94.0498L217.442 100.927C217.149 100.898 216.753 100.861 216.255 100.817C215.757 100.773 215.34 100.751 215.003 100.751C214.139 100.751 213.392 100.854 212.762 101.059C212.146 101.25 211.634 101.542 211.224 101.938C210.828 102.319 210.535 102.802 210.345 103.388C210.169 103.974 210.088 104.655 210.103 105.432L208.763 104.553C208.763 102.956 208.917 101.506 209.224 100.202C209.546 98.8838 210 97.7485 210.586 96.7964C211.172 95.8296 211.883 95.0898 212.718 94.5771C213.553 94.0498 214.49 93.7861 215.53 93.7861C215.896 93.7861 216.255 93.8081 216.607 93.8521C216.973 93.896 217.295 93.9619 217.574 94.0498ZM231.812 112.023V102.224C231.812 101.55 231.717 100.971 231.526 100.488C231.336 100.004 231.036 99.6309 230.625 99.3672C230.215 99.0889 229.666 98.9497 228.978 98.9497C228.421 98.9497 227.945 99.0449 227.549 99.2354C227.154 99.4258 226.854 99.7114 226.648 100.092C226.443 100.473 226.341 100.957 226.341 101.542H218.936C218.936 100.444 219.178 99.4258 219.661 98.4883C220.159 97.5361 220.862 96.7085 221.771 96.0054C222.693 95.3022 223.792 94.7603 225.066 94.3794C226.355 93.9839 227.791 93.7861 229.373 93.7861C231.263 93.7861 232.947 94.1011 234.427 94.731C235.921 95.3608 237.1 96.3057 237.964 97.5654C238.829 98.8105 239.261 100.378 239.261 102.268V112.001C239.261 113.554 239.349 114.733 239.524 115.539C239.7 116.33 239.949 117.026 240.271 117.626V118H232.845C232.493 117.268 232.229 116.374 232.054 115.319C231.893 114.25 231.812 113.151 231.812 112.023ZM232.713 103.476L232.757 107.431H229.483C228.794 107.431 228.208 107.526 227.725 107.717C227.256 107.907 226.875 108.171 226.583 108.508C226.304 108.83 226.099 109.196 225.967 109.606C225.85 110.017 225.792 110.449 225.792 110.903C225.792 111.342 225.894 111.738 226.099 112.089C226.319 112.426 226.612 112.69 226.978 112.88C227.344 113.071 227.754 113.166 228.208 113.166C229.029 113.166 229.725 113.012 230.296 112.705C230.882 112.382 231.329 111.994 231.636 111.54C231.944 111.086 232.098 110.661 232.098 110.266L233.724 113.298C233.431 113.884 233.094 114.477 232.713 115.078C232.347 115.678 231.885 116.235 231.329 116.748C230.787 117.246 230.12 117.656 229.329 117.978C228.538 118.286 227.579 118.439 226.451 118.439C224.986 118.439 223.638 118.139 222.408 117.539C221.192 116.938 220.218 116.103 219.485 115.034C218.753 113.95 218.387 112.705 218.387 111.298C218.387 110.068 218.606 108.969 219.046 108.002C219.5 107.036 220.181 106.215 221.089 105.542C221.998 104.868 223.155 104.355 224.561 104.003C225.967 103.652 227.623 103.476 229.527 103.476H232.713ZM250.84 99.2573V118H243.436V94.2256H250.379L250.84 99.2573ZM249.939 105.3L248.248 105.344C248.248 103.674 248.445 102.136 248.841 100.729C249.236 99.3232 249.822 98.1001 250.599 97.0601C251.375 96.02 252.327 95.2144 253.455 94.6431C254.598 94.0718 255.916 93.7861 257.41 93.7861C258.45 93.7861 259.395 93.9473 260.245 94.2695C261.094 94.5771 261.827 95.0679 262.442 95.7417C263.057 96.4009 263.526 97.2651 263.848 98.3345C264.185 99.3892 264.354 100.656 264.354 102.136V118H256.949V103.081C256.949 102.07 256.832 101.308 256.597 100.795C256.377 100.283 256.055 99.9385 255.63 99.7627C255.206 99.5869 254.686 99.499 254.07 99.499C253.426 99.499 252.847 99.6455 252.334 99.9385C251.822 100.231 251.382 100.642 251.016 101.169C250.665 101.682 250.394 102.29 250.203 102.993C250.027 103.696 249.939 104.465 249.939 105.3ZM263.519 105.3L261.453 105.344C261.453 103.674 261.636 102.136 262.002 100.729C262.383 99.3232 262.947 98.1001 263.694 97.0601C264.456 96.02 265.401 95.2144 266.529 94.6431C267.657 94.0718 268.968 93.7861 270.462 93.7861C271.546 93.7861 272.542 93.9473 273.45 94.2695C274.358 94.5918 275.142 95.1118 275.801 95.8296C276.46 96.5474 276.973 97.4995 277.339 98.686C277.706 99.8579 277.889 101.308 277.889 103.037V118H270.462V103.037C270.462 102.055 270.345 101.315 270.11 100.817C269.891 100.305 269.568 99.9604 269.144 99.7847C268.719 99.5942 268.213 99.499 267.627 99.499C266.924 99.499 266.316 99.6455 265.804 99.9385C265.291 100.231 264.859 100.642 264.507 101.169C264.17 101.682 263.921 102.29 263.76 102.993C263.599 103.696 263.519 104.465 263.519 105.3ZM293.643 118.439C291.709 118.439 289.981 118.139 288.458 117.539C286.934 116.923 285.645 116.081 284.59 115.012C283.55 113.942 282.752 112.712 282.195 111.32C281.653 109.929 281.382 108.457 281.382 106.904V106.069C281.382 104.326 281.624 102.714 282.107 101.235C282.591 99.7407 283.309 98.437 284.261 97.3237C285.213 96.2104 286.407 95.3462 287.842 94.731C289.278 94.1011 290.948 93.7861 292.852 93.7861C294.537 93.7861 296.045 94.0571 297.378 94.5991C298.711 95.1411 299.839 95.9175 300.762 96.9282C301.7 97.939 302.41 99.1621 302.894 100.598C303.392 102.033 303.641 103.645 303.641 105.432V108.442H284.217V103.806H296.412V103.234C296.426 102.443 296.287 101.77 295.994 101.213C295.716 100.656 295.306 100.231 294.764 99.9385C294.222 99.6455 293.562 99.499 292.786 99.499C291.98 99.499 291.314 99.6748 290.787 100.026C290.274 100.378 289.871 100.861 289.578 101.477C289.3 102.077 289.102 102.773 288.985 103.564C288.868 104.355 288.809 105.19 288.809 106.069V106.904C288.809 107.783 288.926 108.581 289.161 109.299C289.41 110.017 289.761 110.632 290.215 111.145C290.684 111.643 291.241 112.031 291.885 112.309C292.544 112.587 293.292 112.727 294.126 112.727C295.137 112.727 296.133 112.536 297.115 112.155C298.096 111.774 298.938 111.145 299.642 110.266L303.003 114.265C302.52 114.953 301.832 115.62 300.938 116.264C300.059 116.909 299.004 117.436 297.774 117.846C296.543 118.242 295.167 118.439 293.643 118.439ZM319.109 111.32C319.109 110.91 318.97 110.559 318.692 110.266C318.428 109.958 317.959 109.68 317.286 109.431C316.612 109.167 315.667 108.903 314.451 108.64C313.294 108.391 312.203 108.061 311.177 107.651C310.167 107.241 309.28 106.743 308.519 106.157C307.757 105.571 307.156 104.875 306.717 104.069C306.292 103.264 306.08 102.341 306.08 101.301C306.08 100.29 306.292 99.3379 306.717 98.4443C307.156 97.5361 307.793 96.7378 308.628 96.0493C309.478 95.3462 310.511 94.7969 311.727 94.4014C312.942 93.9912 314.327 93.7861 315.879 93.7861C318.018 93.7861 319.864 94.1157 321.417 94.7749C322.969 95.4194 324.163 96.3276 324.998 97.4995C325.848 98.6567 326.272 99.9971 326.272 101.521H318.868C318.868 100.92 318.765 100.407 318.56 99.9824C318.37 99.5576 318.055 99.2354 317.615 99.0156C317.176 98.7812 316.59 98.6641 315.857 98.6641C315.345 98.6641 314.876 98.7593 314.451 98.9497C314.041 99.1401 313.711 99.4038 313.462 99.7407C313.213 100.078 313.089 100.473 313.089 100.927C313.089 101.25 313.162 101.542 313.309 101.806C313.47 102.055 313.711 102.29 314.034 102.509C314.356 102.714 314.766 102.905 315.264 103.081C315.762 103.242 316.363 103.388 317.066 103.52C318.663 103.813 320.157 104.23 321.548 104.772C322.94 105.314 324.068 106.083 324.932 107.08C325.811 108.076 326.25 109.416 326.25 111.101C326.25 112.155 326.009 113.129 325.525 114.023C325.042 114.902 324.346 115.678 323.438 116.352C322.53 117.011 321.438 117.524 320.164 117.89C318.89 118.256 317.454 118.439 315.857 118.439C313.587 118.439 311.668 118.037 310.101 117.231C308.533 116.411 307.347 115.385 306.541 114.155C305.75 112.91 305.354 111.65 305.354 110.375H312.254C312.283 111.108 312.459 111.708 312.781 112.177C313.118 112.646 313.565 112.99 314.122 113.21C314.678 113.43 315.323 113.54 316.055 113.54C316.729 113.54 317.286 113.444 317.725 113.254C318.179 113.063 318.523 112.807 318.758 112.485C318.992 112.148 319.109 111.76 319.109 111.32Z" fill="#424241"/>
<path d="M1363 15C1363 6.71573 1356.28 0 1348 0H1134V167H1348C1356.28 167 1363 160.284 1363 152V15Z" fill="#344E41"/>
<path fill-rule="evenodd" clip-rule="evenodd" d="M1203 49C1203 47.8954 1203.9 47 1205 47H1292.5C1293.6 47 1294.5 47.8954 1294.5 49V118.996C1294.5 120.101 1293.6 120.996 1292.5 120.996H1205C1203.9 120.996 1203 120.101 1203 118.996V49ZM1207 51V55.4945H1290.5V51H1207ZM1290.5 59.4945H1235.44V116.996H1290.5V59.4945ZM1231.44 116.996V59.4945H1207V116.996H1231.44Z" fill="#D46C4E"/>
<path fill-rule="evenodd" clip-rule="evenodd" d="M1209.97 64.8004C1209.97 63.6958 1210.87 62.8004 1211.97 62.8004H1225.97C1227.08 62.8004 1227.97 63.6958 1227.97 64.8004V84.1956C1227.97 85.3001 1227.08 86.1956 1225.97 86.1956H1211.97C1210.87 86.1956 1209.97 85.3001 1209.97 84.1956V64.8004ZM1213.97 66.8004V82.1956H1223.97V66.8004H1213.97ZM1239.58 65.6964C1239.58 64.5918 1240.47 63.6964 1241.58 63.6964H1284.5C1285.61 63.6964 1286.5 64.5918 1286.5 65.6964V111.905C1286.5 113.01 1285.61 113.905 1284.5 113.905H1241.58C1240.47 113.905 1239.58 113.01 1239.58 111.905V65.6964ZM1243.58 67.6964V109.905H1282.5V67.6964H1243.58ZM1209.81 95.9363C1209.81 94.8317 1210.71 93.9363 1211.81 93.9363H1220.73C1221.84 93.9363 1222.73 94.8317 1222.73 95.9363C1222.73 97.0409 1221.84 97.9363 1220.73 97.9363H1211.81C1210.71 97.9363 1209.81 97.0409 1209.81 95.9363ZM1209.81 102.936C1209.81 101.832 1210.71 100.936 1211.81 100.936H1226.35C1227.46 100.936 1228.35 101.832 1228.35 102.936C1228.35 104.041 1227.46 104.936 1226.35 104.936H1211.81C1210.71 104.936 1209.81 104.041 1209.81 102.936ZM1209.81 109.936C1209.81 108.832 1210.71 107.936 1211.81 107.936H1220.73C1221.84 107.936 1222.73 108.832 1222.73 109.936C1222.73 111.041 1221.84 111.936 1220.73 111.936H1211.81C1210.71 111.936 1209.81 111.041 1209.81 109.936Z" fill="#D46C4E"/>
</svg>
